<svg width="640" height="832" viewBox="0 0 640 832" fill="none" xmlns="http://www.w3.org/2000/svg">
<rect width="640" height="832" fill="#FF531A"/>
<mask id="mask0_769_405" style="mask-type:alpha" maskUnits="userSpaceOnUse" x="0" y="0" width="640" height="832">
<rect width="640" height="832" fill="#FF531A"/>
</mask>
<g mask="url(#mask0_769_405)">
<g filter="url(#filter0_d_769_405)">
<rect x="-128" y="255.642" width="357.841" height="252.21" rx="20" transform="rotate(-25.0728 -128 255.642)" fill="white"/>
</g>
<path d="M130.61 172.527L-87.9647 275.132C-96.8208 279.289 -100.884 289.296 -97.0413 297.483L-31.9029 436.245C-28.0597 444.432 -17.7649 447.699 -8.90888 443.542L209.666 340.937C218.522 336.78 222.586 326.773 218.743 318.586L153.604 179.824C149.761 171.637 139.466 168.37 130.61 172.527Z" fill="#FF531A"/>
<path opacity="0.96" d="M130.61 172.527L-87.9647 275.132C-96.8208 279.289 -100.884 289.296 -97.0413 297.483L-31.9029 436.245C-28.0597 444.432 -17.7649 447.699 -8.90888 443.542L209.666 340.937C218.522 336.78 222.586 326.773 218.743 318.586L153.604 179.824C149.761 171.637 139.466 168.37 130.61 172.527Z" fill="white"/>
<path d="M-3.37712 366.3L-25.905 376.875L-21.3314 386.618L1.19652 376.043L-3.37712 366.3Z" fill="#FF531A"/>
<path d="M27.0528 341.352L4.5249 351.927L13.207 370.422L35.7349 359.847L27.0528 341.352Z" fill="#263238"/>
<path d="M60.3834 322.623L37.8555 333.198L47.7235 354.219L70.2514 343.644L60.3834 322.623Z" fill="#FF531A"/>
<path d="M87.3143 290.221L64.7864 300.796L82.2553 338.009L104.783 327.434L87.3143 290.221Z" fill="#263238"/>
<path d="M110.305 249.465L87.7771 260.04L116.765 321.792L139.293 311.217L110.305 249.465Z" fill="#FF531A"/>
<path d="M134.967 212.268L112.439 222.843L151.288 305.603L173.816 295.028L134.967 212.268Z" fill="#263238"/>
<g filter="url(#filter1_f_769_405)">
<rect x="336" y="71.6418" width="357.841" height="175.458" rx="20" transform="rotate(-25.0728 336 71.6418)" fill="white" fill-opacity="0.69"/>
</g>
<rect x="-187" y="-16.3582" width="357.841" height="175.458" rx="20" transform="rotate(-25.0728 -187 -16.3582)" fill="white"/>
<g filter="url(#filter2_d_769_405)">
<rect x="326" y="304.984" width="443.601" height="256.153" rx="20" transform="rotate(-25.0728 326 304.984)" fill="white"/>
</g>
<g filter="url(#filter3_f_769_405)">
<rect x="17" y="546.607" width="308.204" height="164.802" rx="20" transform="rotate(-25.0728 17 546.607)" fill="white" fill-opacity="0.6"/>
</g>
<rect x="250" y="718.925" width="247.599" height="164.802" rx="20" transform="rotate(-25.0728 250 718.925)" fill="#FCFCFC"/>
<g filter="url(#filter4_f_769_405)">
<rect x="-27" y="847.925" width="247.599" height="164.802" rx="20" transform="rotate(-25.0728 -27 847.925)" fill="#FCFCFC" fill-opacity="0.6"/>
</g>
<g filter="url(#filter5_f_769_405)">
<rect x="521" y="585.607" width="308.204" height="164.802" rx="20" transform="rotate(-25.0728 521 585.607)" fill="white" fill-opacity="0.6"/>
</g>
<circle cx="186.847" cy="131.723" r="2.5" transform="rotate(5.37373 186.847 131.723)" fill="#464646" fill-opacity="0.74"/>
<circle cx="193.688" cy="144.42" r="2.5" transform="rotate(5.37373 193.688 144.42)" fill="#464646" fill-opacity="0.74"/>
<circle cx="190.267" cy="138.071" r="2.5" transform="rotate(5.37373 190.267 138.071)" fill="#464646" fill-opacity="0.74"/>
<path d="M32.2616 386.376C32.0171 386.499 31.8292 386.429 31.6981 386.167L28.3311 379.439C28.2 379.177 28.2567 378.985 28.5013 378.862L30.9273 377.648C32.0067 377.108 32.8784 376.882 33.5422 376.969C34.2043 377.052 34.7233 377.47 35.0992 378.221C35.3789 378.78 35.4009 379.326 35.1653 379.858C34.9296 380.391 34.5298 380.867 33.9656 381.284L33.9709 381.295C34.3692 381.253 34.7098 381.301 34.9929 381.439C35.2759 381.577 35.5136 381.702 35.7058 381.816L37.7685 383.057C38.1109 383.261 38.1197 383.445 37.7949 383.607L36.8831 384.064C36.691 384.16 36.4822 384.135 36.2568 383.99L34.3147 382.754C34.105 382.623 33.7905 382.523 33.3712 382.453C32.9537 382.378 32.5947 382.416 32.2943 382.566L31.9065 382.76L33.2282 385.401C33.3593 385.663 33.3026 385.855 33.058 385.978L32.2616 386.376ZM31.2562 381.461L32.1942 380.992C32.8928 380.642 33.3495 380.315 33.5643 380.011C33.7808 379.702 33.8025 379.374 33.6294 379.028C33.4406 378.651 33.175 378.478 32.8326 378.51C32.492 378.536 32.0457 378.687 31.4938 378.964L30.3043 379.559L31.2562 381.461ZM39.7441 382.632C39.4996 382.754 39.3117 382.684 39.1806 382.422L35.8137 375.694C35.6825 375.432 35.7392 375.24 35.9838 375.118L40.4796 372.868C40.7416 372.737 40.9294 372.785 41.043 373.012L41.3524 373.63C41.4661 373.857 41.3919 374.036 41.1299 374.167L37.7973 375.835L38.6312 377.501L41.6861 375.973C41.948 375.842 42.1359 375.89 42.2495 376.117L42.5589 376.735C42.6725 376.962 42.5984 377.141 42.3364 377.272L39.2815 378.801L40.257 380.75L43.7572 378.999C44.0192 378.867 44.207 378.915 44.3207 379.142L44.6301 379.761C44.7437 379.988 44.6696 380.167 44.4076 380.298L39.7441 382.632ZM42.7281 373.42C42.4661 373.551 42.2783 373.503 42.1646 373.276L41.8342 372.616C41.7206 372.389 41.7948 372.21 42.0568 372.079L47.4433 369.383C47.7053 369.252 47.8931 369.3 48.0068 369.527L48.3372 370.187C48.4508 370.414 48.3766 370.593 48.1146 370.724L46.1864 371.689L49.1312 377.574C49.2273 377.766 49.1881 377.906 49.0134 377.993L48.0073 378.497C47.8327 378.584 47.6973 378.532 47.6011 378.339L44.6563 372.455L42.7281 373.42ZM51.0477 373.063L48.9971 368.966C48.9009 368.774 48.9751 368.616 49.2196 368.494L50.0161 368.095C50.2606 367.973 50.431 368.008 50.5271 368.2L52.5515 372.245C53.0235 373.188 53.4569 373.71 53.8518 373.809C54.2484 373.903 54.6213 373.863 54.9706 373.688C55.32 373.513 55.574 373.24 55.7329 372.868C55.8935 372.49 55.7377 371.83 55.2657 370.887L53.2414 366.842C53.1452 366.65 53.2194 366.492 53.4639 366.37L54.2604 365.971C54.5049 365.849 54.6752 365.884 54.7714 366.076L56.822 370.174C57.4339 371.396 57.6045 372.383 57.334 373.134C57.0618 373.882 56.4803 374.479 55.5895 374.925C54.6987 375.371 53.8724 375.478 53.1107 375.248C52.3472 375.014 51.6595 374.286 51.0477 373.063ZM60.431 372.279C60.1865 372.402 59.9987 372.332 59.8676 372.07L56.5006 365.342C56.3695 365.08 56.4262 364.888 56.6707 364.765L59.0968 363.551C60.1762 363.011 61.0478 362.784 61.7117 362.871C62.3738 362.955 62.8928 363.372 63.2686 364.123C63.5483 364.682 63.5704 365.228 63.3347 365.761C63.0991 366.294 62.6992 366.769 62.1351 367.187L62.1403 367.198C62.5386 367.156 62.8793 367.203 63.1623 367.341C63.4454 367.479 63.683 367.605 63.8752 367.718L65.9379 368.96C66.2804 369.164 66.2892 369.347 65.9643 369.51L65.0526 369.966C64.8604 370.062 64.6517 370.038 64.4263 369.893L62.4841 368.657C62.2744 368.526 61.96 368.426 61.5407 368.356C61.1231 368.281 60.7642 368.319 60.4637 368.469L60.076 368.663L61.3976 371.304C61.5287 371.566 61.472 371.758 61.2275 371.881L60.431 372.279ZM59.4257 367.364L60.3636 366.894C61.0622 366.545 61.519 366.218 61.7337 365.914C61.9502 365.604 61.9719 365.277 61.7989 364.931C61.6101 364.554 61.3445 364.381 61.0021 364.413C60.6615 364.439 60.2152 364.59 59.6632 364.866L58.4738 365.462L59.4257 367.364ZM67.9135 368.535C67.669 368.657 67.4812 368.587 67.3501 368.325L63.9831 361.597C63.852 361.335 63.9087 361.143 64.1532 361.021L64.9287 360.633C65.2291 360.482 65.5174 360.491 65.7935 360.658L70.6134 363.613L70.6501 363.594C70.5277 363.393 70.4141 363.188 70.3092 362.978L68.4894 359.342C68.3583 359.08 68.415 358.888 68.6595 358.765L69.456 358.367C69.7005 358.245 69.8883 358.314 70.0194 358.576L73.3864 365.304C73.5175 365.566 73.4608 365.758 73.2163 365.881L72.4932 366.243C72.1927 366.393 71.9045 366.384 71.6284 366.217L66.7167 363.21L66.6801 363.229C66.8024 363.43 66.916 363.635 67.0209 363.844L68.8801 367.559C69.0112 367.821 68.9545 368.014 68.71 368.136L67.9135 368.535ZM79.2945 362.839C79.05 362.961 78.8621 362.892 78.731 362.63L75.3641 355.902C75.2329 355.64 75.2897 355.447 75.5342 355.325L77.4939 354.344C78.7514 353.715 79.7253 353.483 80.4154 353.649C81.109 353.813 81.6437 354.27 82.0195 355.021C82.3954 355.772 82.4411 356.475 82.1566 357.128C81.8755 357.78 81.1062 358.42 79.8487 359.05L79.0522 359.448L80.2611 361.864C80.3922 362.126 80.3355 362.318 80.091 362.44L79.2945 362.839ZM78.4124 358.17L79.2036 357.774C79.9022 357.424 80.3362 357.104 80.5056 356.814C80.6732 356.521 80.6608 356.182 80.4685 355.798C80.2762 355.413 80.0133 355.202 79.6796 355.164C79.3442 355.122 78.8271 355.276 78.1285 355.625L77.3373 356.021L78.4124 358.17ZM86.253 359.357C86.0085 359.479 85.8207 359.409 85.6896 359.147L82.3226 352.419C82.1915 352.157 82.2482 351.965 82.4927 351.843L86.9885 349.593C87.2505 349.462 87.4383 349.51 87.5519 349.737L87.8614 350.355C87.975 350.582 87.9008 350.761 87.6388 350.892L84.3063 352.56L85.1401 354.226L88.195 352.698C88.457 352.566 88.6448 352.614 88.7584 352.841L89.0678 353.46C89.1815 353.687 89.1073 353.866 88.8453 353.997L85.7905 355.526L86.7659 357.475L90.2662 355.723C90.5282 355.592 90.716 355.64 90.8296 355.867L91.139 356.486C91.2527 356.713 91.1785 356.892 90.9165 357.023L86.253 359.357ZM92.96 356C92.7155 356.123 92.5277 356.053 92.3966 355.791L89.0296 349.063C88.8985 348.801 88.9552 348.609 89.1997 348.486L91.6258 347.272C92.7052 346.732 93.5768 346.505 94.2407 346.593C94.9028 346.676 95.4218 347.093 95.7976 347.845C96.0773 348.403 96.0994 348.949 95.8637 349.482C95.6281 350.015 95.2282 350.49 94.6641 350.908L94.6693 350.919C95.0676 350.877 95.4083 350.924 95.6913 351.062C95.9744 351.2 96.212 351.326 96.4042 351.439L98.4669 352.681C98.8094 352.885 98.8182 353.068 98.4933 353.231L97.5816 353.687C97.3894 353.783 97.1807 353.759 96.9553 353.614L95.0131 352.378C94.8034 352.247 94.489 352.147 94.0697 352.077C93.6521 352.002 93.2932 352.04 92.9927 352.19L92.605 352.384L93.9266 355.025C94.0577 355.287 94.001 355.479 93.7565 355.602L92.96 356ZM91.9547 351.085L92.8926 350.615C93.5913 350.266 94.048 349.939 94.2627 349.635C94.4792 349.325 94.5009 348.998 94.3279 348.652C94.1391 348.275 93.8735 348.102 93.5311 348.134C93.1905 348.16 92.7442 348.311 92.1922 348.587L91.0028 349.183L91.9547 351.085ZM99.9049 343.692C99.5764 343.481 99.5834 343.29 99.9257 343.118L100.843 342.66C101.024 342.569 101.245 342.609 101.506 342.78L103.595 344.165C103.652 344.202 103.827 344.32 104.119 344.519C104.409 344.714 104.631 344.935 104.785 345.182L104.806 345.171C104.701 344.9 104.657 344.59 104.674 344.241C104.69 343.888 104.7 343.678 104.705 343.609L104.849 341.107C104.868 340.796 104.968 340.595 105.15 340.504L106.067 340.045C106.409 339.874 106.566 339.983 106.539 340.373L106.145 345.962L107.377 348.425C107.474 348.617 107.399 348.774 107.155 348.896L106.358 349.295C106.114 349.417 105.943 349.383 105.847 349.19L104.615 346.728L99.9049 343.692ZM111.279 346.833C111.034 346.955 110.846 346.885 110.715 346.623L107.348 339.895C107.217 339.633 107.274 339.441 107.518 339.319L112.014 337.069C112.276 336.938 112.464 336.986 112.577 337.213L112.887 337.831C113.001 338.058 112.926 338.237 112.664 338.368L109.332 340.036L110.166 341.702L113.221 340.174C113.483 340.043 113.67 340.091 113.784 340.318L114.093 340.936C114.207 341.163 114.133 341.342 113.871 341.473L110.816 343.002L111.791 344.951L115.292 343.199C115.554 343.068 115.742 343.116 115.855 343.343L116.165 343.962C116.278 344.189 116.204 344.368 115.942 344.499L111.279 346.833ZM117.383 343.778C117.131 343.904 116.992 343.83 116.964 343.555L116.156 335.527C116.123 335.19 116.216 334.966 116.436 334.856L117.17 334.489C117.39 334.378 117.625 334.438 117.875 334.667L123.817 340.125C124.02 340.312 123.996 340.469 123.744 340.594L122.911 341.011C122.68 341.127 122.459 341.087 122.248 340.891L121.008 339.749L118.346 341.081L118.517 342.758C118.547 343.045 118.447 343.246 118.216 343.361L117.383 343.778ZM118.183 339.538L119.871 338.693L118.392 337.35C118.217 337.192 118.099 337.075 118.038 336.996C117.979 336.912 117.897 336.787 117.792 336.621L117.771 336.632C117.841 336.815 117.89 336.957 117.918 337.056C117.948 337.151 117.973 337.315 117.994 337.549L118.183 339.538ZM125.29 339.821C125.045 339.943 124.858 339.873 124.726 339.611L121.359 332.883C121.228 332.621 121.285 332.429 121.53 332.307L123.956 331.093C125.035 330.553 125.907 330.326 126.571 330.413C127.233 330.497 127.752 330.914 128.128 331.665C128.407 332.224 128.429 332.77 128.194 333.303C127.958 333.836 127.558 334.311 126.994 334.729L126.999 334.739C127.398 334.697 127.738 334.745 128.021 334.883C128.304 335.021 128.542 335.147 128.734 335.26L130.797 336.501C131.139 336.706 131.148 336.889 130.823 337.052L129.911 337.508C129.719 337.604 129.511 337.58 129.285 337.435L127.343 336.199C127.133 336.068 126.819 335.967 126.4 335.898C125.982 335.823 125.623 335.86 125.323 336.011L124.935 336.205L126.256 338.846C126.388 339.108 126.331 339.3 126.086 339.422L125.29 339.821ZM124.285 334.905L125.222 334.436C125.921 334.086 126.378 333.76 126.593 333.455C126.809 333.146 126.831 332.819 126.658 332.473C126.469 332.096 126.203 331.923 125.861 331.954C125.52 331.981 125.074 332.132 124.522 332.408L123.333 333.003L124.285 334.905Z" fill="black"/>
<path d="M456.843 300.81C451.561 300.169 445.964 300.364 440.387 301.385C434.81 302.405 429.369 304.229 424.39 306.748L436.206 322.141C439.013 320.723 442.084 319.705 445.229 319.149C448.373 318.593 451.523 318.511 454.483 318.91L460.224 305.215L456.843 300.81Z" fill="#FF531A"/>
<path opacity="0.3" d="M456.843 300.81C451.561 300.169 445.964 300.364 440.387 301.385C434.81 302.405 429.369 304.229 424.39 306.748L436.206 322.141C439.013 320.723 442.084 319.705 445.229 319.149C448.373 318.593 451.523 318.511 454.483 318.91L460.224 305.215L456.843 300.81Z" fill="white"/>
<path d="M451.101 314.504L456.843 300.81C451.561 300.169 445.964 300.364 440.387 301.385C434.81 302.405 429.369 304.229 424.39 306.748L432.83 317.743C435.635 316.325 438.705 315.305 441.849 314.748C444.992 314.19 448.142 314.108 451.101 314.504Z" fill="#FF531A"/>
<path d="M455.645 324.416C459.931 324.979 463.659 326.523 466.357 328.852C468.025 332.434 467.788 336.578 465.69 340.543C463.592 344.508 459.768 348.035 454.904 350.493C450.04 352.95 444.452 354.178 439.141 353.957C433.829 353.736 429.14 352.08 425.913 349.285C424.246 345.702 424.483 341.558 426.58 337.593C428.678 333.627 432.5 330.1 437.363 327.64L425.547 312.247C415.717 317.213 408.28 324.57 404.872 332.698C401.464 340.827 402.364 349.061 407.375 355.589C407.938 356.322 408.567 357.022 409.218 357.71C409.692 358.488 410.189 359.254 410.751 359.987C415.873 366.356 424.573 370.498 434.978 371.521C445.383 372.543 456.66 370.364 466.38 365.453C476.1 360.543 483.485 353.293 486.943 345.266C490.402 337.239 489.659 329.077 484.873 322.539C484.31 321.806 483.747 321.073 483.03 320.418C482.567 319.634 482.059 318.873 481.497 318.14C476.62 311.759 468.191 307.515 458 306.309L452.269 320.018L455.645 324.416Z" fill="#FF531A"/>
<path opacity="0.3" d="M455.645 324.416C459.931 324.979 463.659 326.523 466.357 328.852C468.025 332.434 467.788 336.578 465.69 340.543C463.592 344.508 459.768 348.035 454.904 350.493C450.04 352.95 444.452 354.178 439.141 353.957C433.829 353.736 429.14 352.08 425.913 349.285C424.246 345.702 424.483 341.558 426.58 337.593C428.678 333.627 432.5 330.1 437.363 327.64L425.547 312.247C415.717 317.213 408.28 324.57 404.872 332.698C401.464 340.827 402.364 349.061 407.375 355.589C407.938 356.322 408.567 357.022 409.218 357.71C409.692 358.488 410.189 359.254 410.751 359.987C415.873 366.356 424.573 370.498 434.978 371.521C445.383 372.543 456.66 370.364 466.38 365.453C476.1 360.543 483.485 353.293 486.943 345.266C490.402 337.239 489.659 329.077 484.873 322.539C484.31 321.806 483.747 321.073 483.03 320.418C482.567 319.634 482.059 318.873 481.497 318.14C476.62 311.759 468.191 307.515 458 306.309L452.269 320.018L455.645 324.416Z" fill="white"/>
<path opacity="0.6" d="M457.579 306.791L451.837 320.486C456.81 321.149 461.007 323.128 463.723 326.09C466.44 329.051 467.509 332.814 466.75 336.744C465.991 340.675 463.452 344.533 459.559 347.668C455.666 350.804 450.657 353.026 445.377 353.959C440.097 354.893 434.867 354.482 430.569 352.795C426.27 351.108 423.166 348.248 421.778 344.697C420.391 341.146 420.805 337.121 422.951 333.299C425.098 329.478 428.844 326.094 433.561 323.717L425.121 312.722C416.564 317.038 409.775 323.186 405.902 330.124C402.03 337.063 401.312 344.366 403.871 350.796C406.43 357.226 412.108 362.388 419.944 365.408C427.78 368.428 437.292 369.121 446.869 367.368C456.446 365.616 465.499 361.526 472.496 355.792C479.493 350.058 484.003 343.031 485.263 335.903C486.522 328.774 484.454 321.981 479.408 316.674C474.362 311.368 466.648 307.874 457.573 306.784L457.579 306.791Z" fill="white"/>
<path d="M438.699 344.788L439.74 346.145L431.561 350.277L430.74 349.207L432.903 344.482C433.099 344.092 433.211 343.691 433.235 343.297C433.243 343.036 433.164 342.79 433.005 342.579C432.92 342.448 432.79 342.34 432.625 342.264C432.46 342.188 432.265 342.146 432.057 342.142C431.547 342.164 431.03 342.314 430.591 342.567C430.148 342.787 429.757 343.068 429.446 343.39C429.156 343.708 428.969 344.062 428.902 344.418L426.479 344.554C426.592 343.909 426.936 343.268 427.474 342.698C428.082 342.047 428.86 341.484 429.749 341.05C430.467 340.673 431.258 340.399 432.07 340.243C432.749 340.111 433.43 340.12 434.035 340.268C434.626 340.428 435.101 340.732 435.393 341.139C435.687 341.517 435.851 341.956 435.872 342.422C435.842 343.051 435.659 343.692 435.332 344.313L434.036 347.135L438.699 344.788Z" fill="#263238"/>
<path d="M442.727 344.168C441.762 344.223 440.848 344.066 440.097 343.716C438.323 342.841 437.222 341.407 437.037 339.728C436.981 339.028 437.21 338.293 437.697 337.615C438.188 336.956 438.902 336.383 439.754 335.965C440.593 335.529 441.541 335.261 442.487 335.194C443.449 335.147 444.36 335.304 445.116 335.646C446.891 336.521 447.992 337.955 448.177 339.634C448.227 340.335 447.998 341.069 447.517 341.748C447.026 342.406 446.312 342.979 445.46 343.398C444.621 343.833 443.672 344.101 442.727 344.168ZM445.491 340.645C445.441 339.909 445.177 339.217 444.715 338.616C444.253 338.015 443.605 337.517 442.813 337.156C442.515 337.067 442.178 337.04 441.832 337.078C441.486 337.116 441.144 337.218 440.836 337.373C440.528 337.529 440.264 337.734 440.07 337.969C439.875 338.204 439.756 338.461 439.722 338.717C439.773 339.453 440.037 340.145 440.499 340.746C440.96 341.348 441.609 341.845 442.401 342.206C442.699 342.295 443.036 342.322 443.382 342.284C443.727 342.246 444.07 342.144 444.378 341.989C444.686 341.833 444.95 341.628 445.144 341.393C445.339 341.159 445.458 340.901 445.491 340.645Z" fill="#263238"/>
<path d="M448.846 336.213C448.043 336.048 447.388 335.673 446.986 335.149C446.584 334.626 446.458 333.983 446.629 333.325C446.74 333.024 446.935 332.733 447.199 332.471C447.464 332.209 447.792 331.983 448.161 331.809C448.515 331.617 448.908 331.479 449.312 331.402C449.717 331.326 450.123 331.315 450.503 331.368C451.301 331.539 451.951 331.916 452.352 332.438C452.753 332.96 452.882 333.6 452.72 334.256C452.611 334.556 452.419 334.847 452.157 335.108C451.894 335.369 451.567 335.594 451.199 335.767C450.843 335.959 450.449 336.098 450.043 336.175C449.636 336.252 449.228 336.265 448.846 336.213ZM451.161 334.22C451.153 333.856 451.032 333.514 450.806 333.219C450.579 332.924 450.254 332.685 449.855 332.519C449.696 332.476 449.517 332.465 449.335 332.487C449.153 332.509 448.973 332.563 448.811 332.645C448.648 332.727 448.509 332.834 448.404 332.957C448.3 333.08 448.233 333.215 448.211 333.35C448.177 333.72 448.294 334.068 448.549 334.349C448.747 334.662 449.083 334.904 449.51 335.044C449.67 335.084 449.848 335.094 450.029 335.071C450.21 335.048 450.389 334.994 450.551 334.912C450.712 334.831 450.851 334.724 450.956 334.603C451.062 334.481 451.13 334.347 451.155 334.213L451.161 334.22ZM454.669 328.632L456.501 327.707L454.631 338.621L452.799 339.547L454.669 328.632ZM459.574 335.9C459.037 335.947 458.522 335.874 458.095 335.691C457.617 335.476 457.226 335.177 456.948 334.816C456.671 334.454 456.513 334.038 456.486 333.594C456.472 333.203 456.618 332.796 456.907 332.426C457.199 332.051 457.612 331.726 458.101 331.487C458.457 331.295 458.851 331.156 459.257 331.079C459.663 331.002 460.072 330.988 460.454 331.04C461.257 331.206 461.912 331.581 462.314 332.105C462.716 332.628 462.842 333.27 462.671 333.928C462.56 334.23 462.365 334.521 462.101 334.783C461.836 335.045 461.508 335.27 461.139 335.445C460.659 335.695 460.117 335.853 459.574 335.9ZM461.1 333.898C461.124 333.528 461 333.18 460.746 332.897C460.55 332.587 460.221 332.346 459.801 332.205C459.642 332.156 459.462 332.142 459.277 332.164C459.092 332.186 458.91 332.243 458.748 332.33C458.585 332.409 458.445 332.515 458.341 332.637C458.236 332.759 458.171 332.894 458.15 333.028C458.149 333.394 458.267 333.739 458.494 334.035C458.721 334.331 459.05 334.569 459.456 334.729C459.616 334.77 459.794 334.779 459.975 334.756C460.156 334.733 460.335 334.679 460.496 334.597C460.657 334.516 460.797 334.41 460.902 334.288C461.007 334.166 461.075 334.032 461.1 333.898Z" fill="#263238"/>
<path d="M561.374 333.454C561.316 333.545 561.239 333.629 561.148 333.699C561.057 333.77 560.953 333.825 560.843 333.863C560.733 333.901 560.619 333.921 560.508 333.92C560.397 333.92 560.29 333.9 560.195 333.861L548.722 329.382C547.471 328.892 545.963 328.894 544.529 329.387L511.859 340.671C510.932 340.995 509.971 341.163 509.03 341.167C508.089 341.171 507.187 341.01 506.376 340.694L495.32 336.377C495.13 336.3 494.994 336.155 494.942 335.972C494.89 335.79 494.927 335.585 495.043 335.402C495.163 335.218 495.354 335.072 495.576 334.996C495.797 334.92 496.029 334.919 496.222 334.994L507.279 339.311C507.897 339.554 508.586 339.677 509.306 339.674C510.025 339.671 510.76 339.541 511.468 339.292L544.137 328.008C545.066 327.686 546.029 327.519 546.971 327.517C547.913 327.515 548.814 327.679 549.624 327.999L561.127 332.489C561.31 332.57 561.438 332.715 561.484 332.895C561.531 333.075 561.491 333.275 561.374 333.454Z" fill="#263238"/>
<path d="M677.289 363.554L627.319 367.723C624.564 367.949 621.856 367.369 619.783 366.107L604.908 356.985C604.665 356.835 604.517 356.618 604.497 356.38C604.477 356.141 604.587 355.902 604.802 355.715C605.018 355.527 605.322 355.407 605.646 355.38C605.971 355.353 606.29 355.421 606.534 355.57L621.408 364.693C622.992 365.658 625.063 366.101 627.169 365.925L677.172 361.754C677.497 361.727 677.816 361.795 678.06 361.945C678.304 362.094 678.452 362.312 678.472 362.55C678.484 362.67 678.463 362.793 678.41 362.909C678.356 363.026 678.271 363.134 678.161 363.228C678.05 363.322 677.916 363.4 677.766 363.456C677.616 363.511 677.454 363.545 677.289 363.554Z" fill="#263238"/>
<path d="M553.732 360.98L550.72 362.47L546.72 357.561C545.94 356.586 545.334 355.855 544.902 355.367L544.849 355.393C545.009 355.869 545.314 356.582 545.762 357.53L545.973 357.974L548.479 363.578L545.467 365.067L541.056 361.085L540.277 360.374C539.282 359.506 538.613 358.93 538.269 358.647L538.215 358.673C538.567 359.23 539.178 360.121 540.046 361.344C540.09 361.424 540.172 361.545 540.292 361.705L543.37 366.105L540.34 367.603L533.931 358.27L539.058 355.734L542.889 359.236L543.896 360.186C543.743 359.808 543.557 359.395 543.337 358.948L541.246 354.652L546.481 352.064L553.732 360.98ZM559.289 358.518C557.854 359.227 556.555 359.46 555.39 359.217C554.229 358.958 553.16 358.178 552.184 356.876C551.648 356.162 551.252 355.502 550.996 354.898C550.743 354.277 550.644 353.807 550.699 353.487C550.766 353.074 551.096 352.596 551.689 352.054C552.294 351.506 552.92 351.073 553.565 350.754C555.107 349.991 556.426 349.741 557.524 350.002C558.621 350.264 559.653 351.04 560.621 352.331C561.661 353.718 562.073 354.911 561.855 355.91C561.638 356.91 560.783 357.779 559.289 358.518ZM557.939 356.619C558.405 356.388 558.601 356.094 558.529 355.735C558.448 355.365 558.128 354.807 557.568 354.06C557.176 353.538 556.846 353.152 556.579 352.904C556.303 352.646 556.033 352.494 555.77 352.449C555.511 352.387 555.214 352.439 554.879 352.604C554.401 352.841 554.154 353.014 554.138 353.124C554.099 353.246 554.197 353.519 554.433 353.943C554.669 354.368 554.948 354.793 555.267 355.22C555.811 355.945 556.273 356.419 556.652 356.641C557.044 356.857 557.472 356.849 557.939 356.619ZM567.466 344.735C567.661 344.799 567.959 345.054 568.359 345.5C568.77 345.939 569.336 346.639 570.056 347.599L572.96 351.472L569.894 352.988L567.014 349.148L566.522 348.491C566.266 348.15 566.077 347.952 565.953 347.896C565.777 347.836 565.516 347.892 565.17 348.064C565.002 348.147 564.881 348.214 564.805 348.266C564.478 348.442 564.184 348.683 563.921 348.988L567.725 354.061L564.659 355.577L559.14 348.216L561.632 346.984L562.896 348.047C563.061 346.694 563.741 345.721 564.936 345.13C565.366 344.918 565.807 344.773 566.257 344.696C566.72 344.614 567.122 344.627 567.466 344.735ZM577.938 346.378C578.237 346.23 578.772 345.928 579.545 345.473C579.653 345.42 579.842 345.312 580.113 345.149L581.617 346.664C580.985 347.503 579.934 348.286 578.464 349.013C577.089 349.693 575.8 349.906 574.595 349.654C573.402 349.396 572.337 348.643 571.401 347.395C570.921 346.755 570.547 346.092 570.279 345.406C570.022 344.714 569.925 344.191 569.988 343.838C570.063 343.48 570.377 343.046 570.93 342.539C571.484 342.031 572.095 341.612 572.764 341.281C573.84 340.749 574.775 340.521 575.568 340.596C576.362 340.672 577.071 340.972 577.694 341.497C578.309 342.012 578.997 342.776 579.757 343.789C578.976 344.234 578.197 344.648 577.42 345.032L574.875 346.291C575.131 346.633 575.4 346.85 575.684 346.944C575.979 347.032 576.296 347.029 576.635 346.934C576.966 346.829 577.4 346.644 577.938 346.378ZM573.17 343.69C573.123 343.758 573.173 343.923 573.321 344.186C573.469 344.449 573.653 344.739 573.873 345.054L574.805 344.593C575.367 344.315 575.769 344.109 576.012 343.974C575.628 343.462 575.273 343.141 574.945 343.01C574.63 342.873 574.275 342.903 573.881 343.098C573.558 343.257 573.321 343.455 573.17 343.69ZM586.214 334.827L588.682 342.052C589.151 343.443 589.419 344.487 589.484 345.186C589.558 345.896 589.507 346.44 589.332 346.819C589.229 347.031 588.992 347.272 588.622 347.543C588.263 347.808 587.845 348.059 587.367 348.295C586.65 348.65 586.032 348.875 585.514 348.97C585.31 348.72 585.086 348.399 584.842 348.008C584.606 347.628 584.422 347.295 584.29 347.009C584.808 346.782 585.306 346.551 585.784 346.314C586.142 346.137 586.407 345.999 586.578 345.899C586.526 345.501 586.449 345.093 586.348 344.675L585.063 345.223L576.927 339.42L580.172 337.815L585.47 342.258L585.716 342.553L585.77 342.527L582.969 336.432L586.214 334.827ZM599.717 335.498L596.741 336.969L597.703 339.235L594.405 340.867L590.864 330.115L595.077 328.031L605.072 335.592L601.755 337.232L599.717 335.498ZM594.348 331.09L595.822 334.989L597.955 333.934L594.42 331.054L594.348 331.09ZM608.608 324.389C608.804 324.453 609.101 324.708 609.501 325.154C609.913 325.593 610.479 326.293 611.199 327.253L614.102 331.126L611.037 332.642L608.157 328.801L607.665 328.145C607.409 327.804 607.219 327.605 607.095 327.55C606.92 327.49 606.659 327.546 606.312 327.718C606.145 327.8 606.023 327.868 605.948 327.92C605.621 328.096 605.326 328.337 605.064 328.642L608.867 333.714L605.802 335.23L600.282 327.87L602.774 326.638L604.039 327.701C604.203 326.348 604.883 325.375 606.078 324.784C606.509 324.572 606.949 324.427 607.4 324.35C607.862 324.268 608.265 324.281 608.608 324.389ZM620.43 327.996L619.388 327.13C619.438 328.202 618.973 328.98 617.993 329.465C617.192 329.861 616.387 329.989 615.577 329.848C614.771 329.691 614.096 329.25 613.552 328.524C613.216 328.076 613.068 327.616 613.106 327.143C613.149 326.654 613.376 326.213 613.786 325.82C614.327 325.319 615.289 324.712 616.671 323.999C616.143 323.295 615.827 322.939 615.724 322.932C615.632 322.919 615.425 322.992 615.102 323.152C614.899 323.252 614.626 323.402 614.283 323.6C613.726 323.905 612.993 324.348 612.085 324.929C611.557 324.4 611.022 323.817 610.478 323.179C611.023 322.748 611.615 322.324 612.252 321.907C612.881 321.479 613.471 321.129 614.02 320.857C614.976 320.384 615.802 320.173 616.496 320.225C617.182 320.266 617.768 320.48 618.256 320.868C618.743 321.256 619.245 321.805 619.761 322.515L621.507 324.876L622.976 326.737L620.43 327.996ZM617.689 327.159C618 327.005 618.288 326.789 618.555 326.511L617.667 325.327L617.524 325.398C616.639 325.835 616.181 326.12 616.149 326.253C616.13 326.336 616.142 326.439 616.186 326.564C616.242 326.682 616.306 326.789 616.378 326.885C616.57 327.141 616.768 327.285 616.971 327.316C617.175 327.347 617.414 327.294 617.689 327.159ZM617.179 316.443L620.161 314.815L627.444 324.528L624.378 326.044L617.179 316.443ZM631.978 312.196L634.446 319.42C634.916 320.811 635.183 321.856 635.249 322.555C635.322 323.264 635.271 323.808 635.097 324.187C634.993 324.399 634.757 324.64 634.386 324.911C634.028 325.176 633.61 325.427 633.132 325.663C632.415 326.018 631.797 326.243 631.279 326.338C631.075 326.088 630.851 325.768 630.607 325.377C630.37 324.996 630.186 324.663 630.054 324.378C630.572 324.151 631.07 323.919 631.548 323.683C631.907 323.505 632.172 323.367 632.343 323.268C632.29 322.87 632.214 322.462 632.113 322.043L630.828 322.591L622.692 316.788L625.937 315.183L631.234 319.626L631.48 319.922L631.534 319.895L628.733 313.8L631.978 312.196ZM643.005 313.411C643.717 314.36 643.888 315.211 643.519 315.964C643.162 316.711 642.362 317.392 641.119 318.007C640.246 318.438 639.158 318.822 637.855 319.16C637.719 318.935 637.545 318.604 637.332 318.168C637.124 317.715 636.97 317.368 636.869 317.125C637.348 316.976 637.866 316.793 638.424 316.576C638.974 316.347 639.434 316.142 639.804 315.959C640.127 315.799 640.312 315.686 640.36 315.618C640.364 315.601 640.356 315.569 640.336 315.52C640.32 315.455 640.292 315.396 640.252 315.343C640.092 315.129 639.834 315.059 639.479 315.132C639.368 315.158 638.935 315.248 638.182 315.401C637.428 315.554 636.693 315.523 635.974 315.308C635.26 315.077 634.667 314.646 634.195 314.017C633.947 313.686 633.755 313.277 633.618 312.788C633.481 312.3 633.469 311.956 633.58 311.754C633.659 311.598 633.942 311.341 634.428 310.984C634.905 310.616 635.377 310.317 635.843 310.087C636.835 309.596 637.881 309.167 638.981 308.798C639.125 308.99 639.339 309.33 639.624 309.818C639.9 310.296 640.058 310.605 640.098 310.746C638.994 311.131 638.132 311.478 637.51 311.785C637.187 311.945 636.99 312.064 636.919 312.143C636.903 312.166 636.903 312.21 636.919 312.275C636.927 312.329 636.959 312.394 637.015 312.468C637.127 312.618 637.261 312.698 637.416 312.709C637.58 312.73 637.929 312.682 638.463 312.564C639.105 312.437 639.673 312.353 640.167 312.313C640.674 312.268 641.182 312.323 641.693 312.48C642.216 312.631 642.653 312.941 643.005 313.411ZM641.286 306.342C640.88 306.543 640.435 306.595 639.952 306.497C639.482 306.394 639.118 306.171 638.862 305.83C638.606 305.489 638.53 305.124 638.633 304.737C638.747 304.344 639.008 304.047 639.414 303.846C639.821 303.645 640.259 303.596 640.73 303.7C641.201 303.803 641.564 304.026 641.82 304.367C642.076 304.709 642.153 305.073 642.05 305.46C641.947 305.847 641.692 306.141 641.286 306.342ZM640.428 308.017L643.494 306.501L649.013 313.861L645.947 315.377L640.428 308.017ZM655.33 307.315C656.042 308.265 656.214 309.116 655.844 309.869C655.487 310.616 654.687 311.297 653.444 311.911C652.571 312.343 651.484 312.727 650.18 313.065C650.044 312.84 649.87 312.509 649.658 312.073C649.449 311.62 649.295 311.273 649.195 311.03C649.673 310.881 650.191 310.698 650.749 310.48C651.299 310.252 651.759 310.047 652.129 309.863C652.452 309.704 652.637 309.59 652.685 309.523C652.689 309.506 652.681 309.474 652.661 309.425C652.645 309.36 652.617 309.301 652.577 309.247C652.417 309.034 652.159 308.964 651.805 309.037C651.693 309.063 651.261 309.153 650.507 309.306C649.754 309.459 649.018 309.428 648.299 309.213C647.585 308.981 646.992 308.551 646.52 307.922C646.272 307.591 646.08 307.181 645.943 306.693C645.806 306.205 645.794 305.861 645.905 305.659C645.984 305.503 646.267 305.246 646.753 304.889C647.231 304.521 647.703 304.222 648.169 303.991C649.161 303.501 650.207 303.071 651.307 302.703C651.451 302.895 651.665 303.235 651.949 303.723C652.225 304.201 652.383 304.51 652.423 304.651C651.32 305.036 650.457 305.382 649.835 305.69C649.513 305.849 649.316 305.969 649.244 306.048C649.228 306.071 649.228 306.114 649.244 306.18C649.252 306.234 649.284 306.299 649.34 306.373C649.452 306.523 649.586 306.603 649.742 306.614C649.905 306.635 650.254 306.587 650.788 306.469C651.43 306.342 651.998 306.258 652.493 306.218C652.999 306.173 653.508 306.228 654.018 306.385C654.541 306.536 654.979 306.846 655.33 307.315Z" fill="black" fill-opacity="0.63"/>
<path d="M615.677 248.535L614.224 248.657L614.341 250.056L612.334 250.223L612.217 248.824L607.422 249.224L607.335 248.185L611.179 243.618L613.34 243.438L609.787 247.762L612.176 247.563L612.072 246.32L614.016 246.158L614.119 247.4L615.572 247.279L615.677 248.535Z" fill="#263238"/>
<path d="M621.951 245.796C622.262 245.952 622.517 246.162 622.697 246.409C622.876 246.657 622.974 246.935 622.984 247.221C623.023 247.611 622.913 248.007 622.668 248.363C622.399 248.738 621.993 249.05 621.499 249.26C620.87 249.531 620.173 249.695 619.463 249.738C618.848 249.785 618.232 249.772 617.63 249.699C617.069 249.642 616.532 249.508 616.043 249.305L616.753 248.056C617.123 248.223 617.532 248.339 617.961 248.4C618.411 248.466 618.874 248.48 619.336 248.442C619.764 248.425 620.182 248.311 620.535 248.117C620.67 248.036 620.777 247.931 620.846 247.813C620.915 247.695 620.942 247.567 620.926 247.441C620.938 247.304 620.894 247.17 620.801 247.056C620.709 246.942 620.571 246.853 620.407 246.801C619.892 246.662 619.33 246.631 618.78 246.711L616.501 246.901L616.652 243.12L622.101 242.666L622.204 243.902L618.489 244.212L618.45 245.487L619.176 245.426C620.146 245.304 621.126 245.434 621.951 245.796Z" fill="#263238"/>
<path d="M623.979 245.661C623.547 245.314 623.291 244.863 623.25 244.379C623.21 243.895 623.388 243.407 623.756 242.993C623.946 242.812 624.183 242.662 624.452 242.554C624.72 242.445 625.014 242.38 625.313 242.364C625.61 242.33 625.909 242.346 626.191 242.408C626.472 242.471 626.729 242.58 626.944 242.727C627.37 243.076 627.623 243.528 627.663 244.01C627.703 244.493 627.529 244.98 627.167 245.396C626.98 245.577 626.745 245.728 626.477 245.837C626.21 245.947 625.918 246.013 625.619 246.031C625.321 246.062 625.02 246.046 624.737 245.982C624.454 245.918 624.195 245.809 623.979 245.661ZM626.213 244.928C626.38 244.675 626.443 244.393 626.393 244.12C626.397 243.842 626.288 243.575 626.082 243.353C626.003 243.272 625.896 243.211 625.773 243.173C625.649 243.135 625.513 243.123 625.378 243.138C625.244 243.148 625.115 243.183 625.001 243.241C624.887 243.298 624.794 243.375 624.728 243.465C624.558 243.718 624.492 244.001 624.54 244.274C624.54 244.55 624.652 244.815 624.859 245.034C624.937 245.114 625.042 245.176 625.164 245.213C625.286 245.251 625.42 245.264 625.554 245.25C625.689 245.242 625.82 245.208 625.936 245.152C626.051 245.096 626.147 245.018 626.213 244.928ZM630.623 241.996L632.131 241.87L626.61 249.032L625.103 249.158L630.623 241.996ZM630.767 248.535C630.414 248.413 630.124 248.214 629.932 247.962C629.721 247.672 629.597 247.349 629.569 247.014C629.541 246.679 629.61 246.34 629.77 246.019C629.909 245.725 630.161 245.466 630.495 245.275C630.828 245.1 631.214 244.992 631.612 244.963C631.909 244.93 632.21 244.946 632.493 245.008C632.776 245.071 633.035 245.179 633.251 245.326C633.717 245.665 633.979 246.133 633.982 246.632C634.024 246.876 634.001 247.126 633.915 247.368C633.828 247.61 633.68 247.839 633.478 248.042C633.289 248.223 633.052 248.374 632.784 248.484C632.515 248.593 632.221 248.66 631.922 248.678C631.521 248.712 631.121 248.663 630.767 248.535ZM632.514 247.555C632.679 247.303 632.742 247.024 632.694 246.753C632.694 246.477 632.586 246.21 632.383 245.986C632.303 245.907 632.196 245.846 632.073 245.808C631.95 245.771 631.814 245.758 631.679 245.771C631.545 245.78 631.414 245.814 631.3 245.872C631.186 245.929 631.093 246.008 631.03 246.099C630.859 246.352 630.794 246.634 630.841 246.908C630.84 247.186 630.951 247.453 631.161 247.674C631.243 247.751 631.349 247.81 631.471 247.847C631.593 247.884 631.727 247.897 631.86 247.886C631.994 247.875 632.123 247.84 632.237 247.783C632.351 247.727 632.446 247.65 632.514 247.562L632.514 247.555Z" fill="#263238"/>
<path d="M645.714 254.071L633.482 249.956C632.036 252.441 629.605 254.558 626.536 256.008C623.466 257.457 619.913 258.165 616.38 258.032C612.848 257.898 609.515 256.929 606.856 255.263C604.197 253.597 602.346 251.317 601.565 248.749C601.829 246.825 602.669 244.951 604.02 243.266C605.372 241.581 607.201 240.131 609.369 239.023L609.029 234.949L601.49 226.688C596.925 229.061 593.227 232.276 590.777 236.001C588.328 239.727 587.216 243.827 587.556 247.88C587.612 248.559 587.714 249.234 587.853 249.906C587.837 250.592 587.839 251.275 587.896 251.954C588.329 257.01 590.998 261.732 595.483 265.377C599.967 269.023 606.012 271.385 612.668 272.093C619.324 272.8 626.213 271.813 632.251 269.286C638.29 266.76 643.135 262.837 646.026 258.134L645.714 254.071Z" fill="#263238"/>
<path opacity="0.6" d="M619.109 258.001C615.36 258.312 611.64 257.681 608.536 256.208C605.432 254.734 603.121 252.502 601.967 249.863C600.813 247.224 600.882 244.328 602.162 241.633C603.443 238.937 605.863 236.595 609.04 234.975L601.501 226.714C597.523 228.783 594.195 231.495 591.78 234.637C589.366 237.778 587.929 241.262 587.585 244.815C587.241 248.368 587.998 251.892 589.797 255.109C591.596 258.327 594.388 261.149 597.951 263.354C601.515 265.559 605.754 267.087 610.333 267.816C614.912 268.545 619.706 268.456 624.338 267.556C628.969 266.656 633.311 264.969 637.02 262.629C640.73 260.289 643.706 257.359 645.714 254.071L633.482 249.956C632.229 252.12 630.228 254.014 627.694 255.432C625.161 256.85 622.192 257.738 619.109 258.001Z" fill="white"/>
<path opacity="0.6" d="M645.714 254.071L633.482 249.956C632.036 252.441 629.605 254.558 626.536 256.008C623.466 257.457 619.913 258.165 616.38 258.032C612.848 257.898 609.515 256.929 606.856 255.263C604.197 253.597 602.346 251.317 601.565 248.749C601.829 246.825 602.669 244.951 604.02 243.266C605.372 241.581 607.201 240.131 609.369 239.023L609.029 234.949L601.49 226.688C596.925 229.061 593.227 232.276 590.777 236.001C588.328 239.727 587.216 243.827 587.556 247.88C587.612 248.559 587.714 249.234 587.853 249.906C587.837 250.592 587.839 251.275 587.896 251.954C588.329 257.01 590.998 261.732 595.483 265.377C599.967 269.023 606.012 271.385 612.668 272.093C619.324 272.8 626.213 271.813 632.251 269.286C638.29 266.76 643.135 262.837 646.026 258.134L645.714 254.071Z" fill="white"/>
<path d="M637.24 251.038L649.471 255.153C651.658 251.591 652.634 247.715 652.308 243.886C652.252 243.207 652.141 242.532 652.002 241.86C652.027 241.174 652.025 240.49 651.968 239.811C651.636 235.833 649.918 232.04 646.984 228.809C644.051 225.578 640.003 223.022 635.245 221.394C630.486 219.766 625.182 219.124 619.859 219.53C614.535 219.936 609.378 221.377 604.899 223.709L605.239 227.784L612.778 236.044C615.068 234.875 617.672 234.124 620.371 233.853C623.07 233.583 625.784 233.801 628.285 234.489C630.785 235.177 632.999 236.316 634.74 237.809C636.48 239.302 637.696 241.105 638.285 243.066C638.101 244.413 637.634 245.74 636.902 246.997L637.24 251.038Z" fill="#263238"/>
<path opacity="0.4" d="M637.24 251.038L649.471 255.153C651.658 251.591 652.634 247.715 652.308 243.886C652.252 243.207 652.141 242.532 652.002 241.86C652.027 241.174 652.025 240.49 651.968 239.811C651.636 235.833 649.918 232.04 646.984 228.809C644.051 225.578 640.003 223.022 635.245 221.394C630.486 219.766 625.182 219.124 619.859 219.53C614.535 219.936 609.378 221.377 604.899 223.709L605.239 227.784L612.778 236.044C615.068 234.875 617.672 234.124 620.371 233.853C623.07 233.583 625.784 233.801 628.285 234.489C630.785 235.177 632.999 236.316 634.74 237.809C636.48 239.302 637.696 241.105 638.285 243.066C638.101 244.413 637.634 245.74 636.902 246.997L637.24 251.038Z" fill="white"/>
<path d="M619.561 219.559C614.343 219.987 609.296 221.416 604.909 223.709L612.448 231.969C615.517 230.404 619.129 229.599 622.748 229.673C626.367 229.746 629.802 230.695 632.544 232.378C635.286 234.061 637.19 236.389 637.975 239.018C638.76 241.647 638.383 244.438 636.901 246.977L649.133 251.092C651.387 247.408 652.352 243.392 651.933 239.441C651.513 235.49 649.724 231.74 646.74 228.559C643.757 225.378 639.683 222.877 634.919 221.301C630.155 219.725 624.865 219.129 619.571 219.572L619.561 219.559Z" fill="#263238"/>
<path d="M599.191 312.795C599.01 312.809 598.834 312.769 598.699 312.684C598.564 312.6 598.48 312.477 598.467 312.343L597.967 306.347C597.873 305.2 598.392 304.05 599.41 303.149L617.105 287.47C617.88 286.78 618.274 285.901 618.2 285.026L617.498 276.612C617.489 276.477 617.551 276.343 617.67 276.237C617.79 276.131 617.957 276.062 618.137 276.046C618.317 276.032 618.493 276.072 618.628 276.157C618.764 276.241 618.847 276.364 618.86 276.498L619.562 284.912C619.655 286.058 619.14 287.207 618.128 288.109L600.433 303.788C600.046 304.129 599.749 304.52 599.559 304.939C599.37 305.359 599.292 305.799 599.329 306.233L599.829 312.229C599.84 312.364 599.78 312.5 599.66 312.606C599.54 312.712 599.371 312.78 599.191 312.795Z" fill="#263238"/>
<path d="M369.289 748.131L363.389 750.982L357.605 740.176C356.482 738.033 355.603 736.422 354.966 735.344L354.861 735.395C355.01 736.42 355.35 737.96 355.88 740.014L356.129 740.976L359 753.103L353.1 755.954L346.296 747.071L345.096 745.485C343.552 743.545 342.512 742.258 341.974 741.622L341.868 741.673C342.34 742.889 343.18 744.836 344.388 747.516C344.444 747.691 344.557 747.954 344.727 748.305L348.992 757.939L343.057 760.807L334.228 740.384L344.271 735.531L350.166 743.338L351.707 745.452C351.544 744.636 351.329 743.743 351.063 742.774L348.555 733.461L358.809 728.506L369.289 748.131ZM382.027 742.539C378.539 744.225 375.521 744.672 372.973 743.882C370.438 743.057 368.288 740.818 366.523 737.166C364.792 733.585 364.491 730.511 365.618 727.944C366.746 725.378 368.89 723.331 372.051 721.804C378.699 718.591 383.624 720.298 386.825 726.923C388.443 730.27 388.896 733.3 388.185 736.011C387.497 738.712 385.445 740.887 382.027 742.539ZM379.884 738.463C380.54 738.147 381.039 737.775 381.382 737.35C381.713 736.901 381.872 736.333 381.858 735.647C381.886 734.449 381.374 732.762 380.322 730.585C379.293 728.455 378.3 727.028 377.345 726.306C376.378 725.56 375.228 725.481 373.894 726.068C373.403 726.305 372.916 726.613 372.434 726.99C371.964 727.332 371.704 727.631 371.654 727.886C371.532 728.35 371.649 729.16 372.005 730.316C372.374 731.437 372.864 732.63 373.475 733.894C374.425 735.86 375.308 737.21 376.123 737.942C376.709 738.496 377.309 738.812 377.925 738.89C378.529 738.945 379.182 738.803 379.884 738.463ZM396.57 724.986L400.473 733.062L394.608 735.896L384.936 715.881L390.871 713.013L400.076 718.527C401.449 719.336 402.544 720.049 403.361 720.665L403.467 720.614L401.838 717.243L398.105 709.517L403.934 706.701L413.606 726.716L407.636 729.601L398.121 723.803L395.387 722.179L395.282 722.23L396.57 724.986ZM407.222 705.112L421.795 698.07L423.831 702.284L415.579 706.271L417.344 709.923L424.297 706.563L426.129 710.356L419.176 713.716L421.145 717.789L429.362 713.818L431.432 718.102L416.894 725.127L407.222 705.112ZM442.12 705.054L445.209 711.445L438.888 714.499L435.834 708.179L422.474 697.742L428.9 694.637L434.708 699.843C435.305 700.363 435.897 700.929 436.481 701.542L436.552 701.508C436.425 700.587 436.337 699.749 436.289 698.992L435.817 691.294L442.208 688.206L442.12 705.054ZM372.495 782.122L366.596 784.973L360.811 774.167C359.689 772.024 358.809 770.413 358.173 769.335L358.067 769.386C358.216 770.411 358.556 771.951 359.086 774.004L359.335 774.967L362.206 787.094L356.307 789.945L349.502 781.061L348.303 779.475C346.759 777.536 345.718 776.248 345.18 775.613L345.075 775.664C345.547 776.88 346.387 778.827 347.595 781.507C347.651 781.682 347.763 781.945 347.933 782.296L352.198 791.93L346.264 794.797L337.435 774.375L347.478 769.522L353.373 777.329L354.914 779.443C354.75 778.626 354.536 777.734 354.27 776.765L351.762 767.452L362.015 762.497L372.495 782.122ZM385.061 770.636L379.231 773.453L380.299 778.351L373.838 781.473L370.627 758.335L378.879 754.348L394.731 771.377L388.235 774.516L385.061 770.636ZM376.647 760.754L378.156 769.165L382.334 767.145L376.788 760.686L376.647 760.754ZM398.439 759.623L402.342 767.7L396.478 770.533L386.806 750.518L392.74 747.65L401.945 753.164C403.318 753.973 404.413 754.686 405.23 755.302L405.336 755.251L403.707 751.88L399.974 744.154L405.803 741.338L415.475 761.353L409.505 764.238L399.99 758.44L397.256 756.816L397.151 756.867L398.439 759.623ZM429.095 754.772L422.775 757.826L415.224 742.2L409.57 744.932L407.449 740.542L425.077 732.024L427.198 736.413L421.544 739.145L429.095 754.772ZM454.996 742.256L448.359 745.463L444.721 740.983C444.584 740.819 444.349 740.542 444.017 740.154C443.698 739.731 443.417 739.448 443.174 739.305C442.921 739.139 442.648 739.083 442.357 739.137C441.713 739.478 440.758 739.953 439.494 740.564L443.092 748.008L436.771 751.063L427.184 731.223C429.914 729.643 432.509 728.26 434.967 727.072C437.191 725.997 439.084 725.313 440.646 725.02C442.197 724.704 443.527 724.827 444.636 725.388C445.757 725.915 446.685 726.939 447.42 728.461C448.11 729.889 448.325 731.171 448.066 732.307C447.795 733.42 446.973 734.409 445.601 735.274L445.703 735.485C446.556 735.159 447.365 735.1 448.13 735.308C448.907 735.482 449.558 735.874 450.085 736.486L454.996 742.256ZM437.577 736.596C437.799 736.518 438.214 736.331 438.823 736.037C440.625 735.166 441.605 734.505 441.763 734.054C441.908 733.637 441.731 732.913 441.234 731.883C440.77 730.924 440.196 730.393 439.511 730.29C438.85 730.177 437.945 730.397 436.798 730.951C436.541 731.076 436.025 731.354 435.252 731.785L437.577 736.596ZM466.607 731.231L460.778 734.047L461.846 738.946L455.385 742.068L452.174 718.93L460.426 714.943L476.278 731.972L469.782 735.111L466.607 731.231ZM458.194 721.349L459.702 729.759L463.881 727.74L458.334 721.281L458.194 721.349Z" fill="black" fill-opacity="0.7"/>
</g>
<defs>
<filter id="filter0_d_769_405" x="-131.414" y="100.586" width="477.828" height="426.914" filterUnits="userSpaceOnUse" color-interpolation-filters="sRGB">
<feFlood flood-opacity="0" result="BackgroundImageFix"/>
<feColorMatrix in="SourceAlpha" type="matrix" values="0 0 0 0 0 0 0 0 0 0 0 0 0 0 0 0 0 0 127 0" result="hardAlpha"/>
<feOffset dx="20" dy="20"/>
<feGaussianBlur stdDeviation="15"/>
<feComposite in2="hardAlpha" operator="out"/>
<feColorMatrix type="matrix" values="0 0 0 0 0 0 0 0 0 0 0 0 0 0 0 0 0 0 0.25 0"/>
<feBlend mode="normal" in2="BackgroundImageFix" result="effect1_dropShadow_769_405"/>
<feBlend mode="normal" in="SourceGraphic" in2="effect1_dropShadow_769_405" result="shape"/>
</filter>
<filter id="filter1_f_769_405" x="322.586" y="-93.4139" width="425.303" height="337.394" filterUnits="userSpaceOnUse" color-interpolation-filters="sRGB">
<feFlood flood-opacity="0" result="BackgroundImageFix"/>
<feBlend mode="normal" in="SourceGraphic" in2="BackgroundImageFix" result="shape"/>
<feGaussianBlur stdDeviation="10" result="effect1_foregroundBlur_769_405"/>
</filter>
<filter id="filter2_d_769_405" x="322.586" y="113.586" width="557.178" height="466.828" filterUnits="userSpaceOnUse" color-interpolation-filters="sRGB">
<feFlood flood-opacity="0" result="BackgroundImageFix"/>
<feColorMatrix in="SourceAlpha" type="matrix" values="0 0 0 0 0 0 0 0 0 0 0 0 0 0 0 0 0 0 127 0" result="hardAlpha"/>
<feOffset dx="20" dy="20"/>
<feGaussianBlur stdDeviation="15"/>
<feComposite in2="hardAlpha" operator="out"/>
<feColorMatrix type="matrix" values="0 0 0 0 0 0 0 0 0 0 0 0 0 0 0 0 0 0 0.25 0"/>
<feBlend mode="normal" in2="BackgroundImageFix" result="effect1_dropShadow_769_405"/>
<feBlend mode="normal" in="SourceGraphic" in2="effect1_dropShadow_769_405" result="shape"/>
</filter>
<filter id="filter3_f_769_405" x="3.58594" y="402.586" width="375.828" height="306.708" filterUnits="userSpaceOnUse" color-interpolation-filters="sRGB">
<feFlood flood-opacity="0" result="BackgroundImageFix"/>
<feBlend mode="normal" in="SourceGraphic" in2="BackgroundImageFix" result="shape"/>
<feGaussianBlur stdDeviation="10" result="effect1_foregroundBlur_769_405"/>
</filter>
<filter id="filter4_f_769_405" x="-40.4141" y="729.586" width="320.934" height="281.026" filterUnits="userSpaceOnUse" color-interpolation-filters="sRGB">
<feFlood flood-opacity="0" result="BackgroundImageFix"/>
<feBlend mode="normal" in="SourceGraphic" in2="BackgroundImageFix" result="shape"/>
<feGaussianBlur stdDeviation="10" result="effect1_foregroundBlur_769_405"/>
</filter>
<filter id="filter5_f_769_405" x="507.586" y="441.586" width="375.828" height="306.708" filterUnits="userSpaceOnUse" color-interpolation-filters="sRGB">
<feFlood flood-opacity="0" result="BackgroundImageFix"/>
<feBlend mode="normal" in="SourceGraphic" in2="BackgroundImageFix" result="shape"/>
<feGaussianBlur stdDeviation="10" result="effect1_foregroundBlur_769_405"/>
</filter>
</defs>
</svg>
