<svg width="37" height="36" viewBox="0 0 37 36" fill="none" xmlns="http://www.w3.org/2000/svg">
<g clip-path="url(#clip0_769_434)">
<path d="M18.3645 35.3613C28.507 35.3613 36.729 27.4454 36.729 17.6807C36.729 7.9159 28.507 0 18.3645 0C8.22209 0 0 7.9159 0 17.6807C0 27.4454 8.22209 35.3613 18.3645 35.3613Z" fill="#FEBCA6"/>
<mask id="mask0_769_434" style="mask-type:luminance" maskUnits="userSpaceOnUse" x="6" y="5" width="25" height="25">
<path d="M30.0864 15.3698H18.6435V19.9377H25.2302C24.6162 22.8397 22.0485 24.5057 18.6435 24.5057C14.6245 24.5057 11.387 21.3887 11.387 17.5194C11.387 13.6501 14.6245 10.5331 18.6435 10.5331C20.3739 10.5331 21.9368 11.1243 23.1648 12.0916L26.7373 8.65221C24.5603 6.82503 21.7694 5.69647 18.6435 5.69647C11.8336 5.69647 6.36328 10.9631 6.36328 17.5194C6.36328 24.0758 11.8336 29.3424 18.6435 29.3424C24.7836 29.3424 30.3655 25.0431 30.3655 17.5194C30.3655 16.8208 30.2539 16.0684 30.0864 15.3698Z" fill="white"/>
</mask>
<g mask="url(#mask0_769_434)">
<path d="M5.24707 24.5057V10.5331L14.7363 17.5194L5.24707 24.5057Z" fill="#FF531A"/>
</g>
<mask id="mask1_769_434" style="mask-type:luminance" maskUnits="userSpaceOnUse" x="6" y="5" width="25" height="25">
<path d="M30.0864 15.3698H18.6435V19.9377H25.2302C24.6162 22.8397 22.0485 24.5057 18.6435 24.5057C14.6245 24.5057 11.387 21.3887 11.387 17.5194C11.387 13.6501 14.6245 10.5331 18.6435 10.5331C20.3739 10.5331 21.9368 11.1243 23.1648 12.0916L26.7373 8.65221C24.5603 6.82503 21.7694 5.69647 18.6435 5.69647C11.8336 5.69647 6.36328 10.9631 6.36328 17.5194C6.36328 24.0758 11.8336 29.3424 18.6435 29.3424C24.7836 29.3424 30.3655 25.0431 30.3655 17.5194C30.3655 16.8208 30.2539 16.0684 30.0864 15.3698Z" fill="white"/>
</mask>
<g mask="url(#mask1_769_434)">
<path d="M5.24707 10.5331L14.7363 17.5194L18.6437 14.2412L32.0403 12.1453V4.62164H5.24707V10.5331Z" fill="#FF531A"/>
</g>
<mask id="mask2_769_434" style="mask-type:luminance" maskUnits="userSpaceOnUse" x="6" y="5" width="25" height="25">
<path d="M30.0864 15.3698H18.6435V19.9377H25.2302C24.6162 22.8397 22.0485 24.5057 18.6435 24.5057C14.6245 24.5057 11.387 21.3887 11.387 17.5194C11.387 13.6501 14.6245 10.5331 18.6435 10.5331C20.3739 10.5331 21.9368 11.1243 23.1648 12.0916L26.7373 8.65221C24.5603 6.82503 21.7694 5.69647 18.6435 5.69647C11.8336 5.69647 6.36328 10.9631 6.36328 17.5194C6.36328 24.0758 11.8336 29.3424 18.6435 29.3424C24.7836 29.3424 30.3655 25.0431 30.3655 17.5194C30.3655 16.8208 30.2539 16.0684 30.0864 15.3698Z" fill="white"/>
</mask>
<g mask="url(#mask2_769_434)">
<path d="M5.24707 24.5057L21.9928 12.1453L26.4025 12.6827L32.0403 4.62164V30.4172H5.24707V24.5057Z" fill="#FF531A"/>
</g>
<mask id="mask3_769_434" style="mask-type:luminance" maskUnits="userSpaceOnUse" x="6" y="5" width="25" height="25">
<path d="M30.0864 15.3698H18.6435V19.9377H25.2302C24.6162 22.8397 22.0485 24.5057 18.6435 24.5057C14.6245 24.5057 11.387 21.3887 11.387 17.5194C11.387 13.6501 14.6245 10.5331 18.6435 10.5331C20.3739 10.5331 21.9368 11.1243 23.1648 12.0916L26.7373 8.65221C24.5603 6.82503 21.7694 5.69647 18.6435 5.69647C11.8336 5.69647 6.36328 10.9631 6.36328 17.5194C6.36328 24.0758 11.8336 29.3424 18.6435 29.3424C24.7836 29.3424 30.3655 25.0431 30.3655 17.5194C30.3655 16.8208 30.2539 16.0684 30.0864 15.3698Z" fill="white"/>
</mask>
<g mask="url(#mask3_769_434)">
<path d="M32.0401 30.4172L14.7362 17.5194L12.5034 15.9072L32.0401 10.5331V30.4172Z" fill="#FF531A"/>
</g>
</g>
<defs>
<clipPath id="clip0_769_434">
<rect width="36.6732" height="35.3613" fill="white"/>
</clipPath>
</defs>
</svg>
