<svg width="500" height="500" viewBox="0 0 500 500" fill="none" xmlns="http://www.w3.org/2000/svg">
<path d="M331.22 401.21H322.53V401.46H331.22V401.21Z" fill="#EBEBEB"/>
<path d="M415.78 389.21H396.59V389.46H415.78V389.21Z" fill="#EBEBEB"/>
<path d="M386.82 126.5L395.82 133.09C341.31 207.73 272.82 252.35 192.16 265.7C135.16 275.14 91.3501 264.84 84.5601 263.09V283.66C104.027 287.78 123.882 289.792 143.78 289.66C160.756 289.657 177.704 288.289 194.46 285.57C233.143 279.3 270.286 265.75 303.92 245.64C344.39 221.52 380.7 187.64 411.92 144.93L420.78 151.44L420.93 115.69L386.82 126.5Z" fill="#0A2A5B"/>
<path d="M94.5 291.69H85.53V381.8H94.5V291.69Z" fill="#0A2A5B"/>
<path d="M116.14 295.69H107.17V381.8H116.14V295.69Z" fill="#0A2A5B"/>
<path d="M137.79 297.69H128.82V381.8H137.79V297.69Z" fill="#0A2A5B"/>
<path d="M159.43 297.69H150.46V381.8H159.43V297.69Z" fill="#0A2A5B"/>
<path d="M181.08 296.69H172.11V381.8H181.08V296.69Z" fill="#0A2A5B"/>
<path d="M202.72 293.69H193.75V381.8H202.72V293.69Z" fill="#0A2A5B"/>
<path d="M224.36 288.69H215.39V381.8H224.36V288.69Z" fill="#0A2A5B"/>
<path d="M246.01 283.69H237.04V381.8H246.01V283.69Z" fill="#0A2A5B"/>
<path d="M267.65 279.69H258.68V381.8H267.65V279.69Z" fill="#0A2A5B"/>
<path d="M289.3 266.62H280.33V381.81H289.3V266.62Z" fill="#0A2A5B"/>
<path d="M310.94 255.63H301.97V381.81H310.94V255.63Z" fill="#0A2A5B"/>
<path d="M332.59 243.11H323.62V381.8H332.59V243.11Z" fill="#0A2A5B"/>
<path d="M354.23 226.43H345.26V381.8H354.23V226.43Z" fill="#0A2A5B"/>
<path d="M375.88 209.02H366.91V381.8H375.88V209.02Z" fill="#0A2A5B"/>
<path d="M397.52 185.81H388.55V381.8H397.52V185.81Z" fill="#0A2A5B"/>
<path d="M419.17 160.49H410.2V381.8H419.17V160.49Z" fill="#0A2A5B"/>
<path d="M250 427.56C357.083 427.56 443.89 422.492 443.89 416.24C443.89 409.988 357.083 404.92 250 404.92C142.918 404.92 56.1101 409.988 56.1101 416.24C56.1101 422.492 142.918 427.56 250 427.56Z" fill="#F5F5F5"/>
<path d="M397.5 270.39C378.29 318.103 350.959 362.127 316.72 400.51L254.78 362.06C289.023 323.674 316.357 279.647 335.57 231.93L397.5 270.39Z" fill="#FF531A"/>
<path opacity="0.4" d="M397.51 270.38C378.289 318.095 350.952 362.122 316.71 400.51L289.94 383.89L254.78 362.07C289.023 323.684 316.357 279.657 335.57 231.94C356.21 244.767 376.857 257.58 397.51 270.38Z" fill="white"/>
<path opacity="0.2" d="M345.76 242.81C345.324 243.98 344.627 245.035 343.724 245.896C342.82 246.758 341.733 247.403 340.544 247.783C339.355 248.164 338.095 248.269 336.859 248.092C335.624 247.915 334.444 247.459 333.41 246.76C316.46 285.337 294.121 321.312 267.06 353.61C268.145 354.227 269.077 355.081 269.784 356.11C270.491 357.139 270.956 358.315 271.142 359.549C271.329 360.783 271.233 362.044 270.862 363.236C270.491 364.428 269.854 365.52 269 366.43L307.61 390.43C309.451 388.388 311.938 387.041 314.654 386.613C317.37 386.185 320.15 386.703 322.53 388.08C349.591 355.778 371.93 319.8 388.88 281.22C386.592 279.698 384.895 277.436 384.075 274.813C383.254 272.19 383.358 269.365 384.37 266.81V266.73L345.77 242.73L345.76 242.81ZM347.55 330.56C341.61 340.11 328.66 342.79 319.15 336.89C309.64 330.99 307.15 318.71 313.08 309.16C319.01 299.61 331.17 296.43 340.69 302.34C350.21 308.25 353.51 321 347.55 330.56Z" fill="black"/>
<g opacity="0.2">
<path d="M340.63 323.71L343.18 325.29C342.8 325.92 342.41 326.55 342.02 327.17L339.48 325.6C338.164 327.589 336.268 329.125 334.05 330L332.4 327.55C334.24 326.854 335.843 325.646 337.02 324.07L332.45 321.23C330.25 323.39 327.69 325.58 324.52 323.61C322.19 322.16 321.25 319.23 323.14 315.45L320.56 313.85C320.95 313.22 321.34 312.6 321.72 311.97L324.26 313.54C325.339 311.941 326.795 310.632 328.5 309.73L330.23 312.11C328.868 312.86 327.673 313.881 326.72 315.11L331.33 317.98C333.53 315.81 336 313.51 339.17 315.48C341.5 316.88 342.48 319.87 340.63 323.71ZM329.69 319.52L325.62 317C324.86 318.78 325.25 320 326.25 320.59C327.25 321.18 328.47 320.61 329.69 319.52ZM337.59 318.52C336.47 317.83 335.33 318.52 334.1 319.65L338.1 322.16C338.92 320.33 338.57 319.13 337.59 318.52Z" fill="black"/>
</g>
<path opacity="0.2" d="M397.51 270.38C378.289 318.095 350.952 362.122 316.71 400.51L289.94 383.89L268.69 348C268.69 348 353.44 312.88 397.51 270.38Z" fill="black"/>
<path d="M443.5 337.4C404.035 370.402 359.152 396.319 310.84 414C298.7 392.953 286.553 371.907 274.4 350.86C322.71 333.193 367.594 307.29 407.06 274.3C419.213 295.327 431.36 316.36 443.5 337.4Z" fill="#FF531A"/>
<path opacity="0.4" d="M443.5 337.4C404.035 370.402 359.152 396.319 310.84 414C298.7 392.953 286.553 371.907 274.4 350.86C322.71 333.193 367.594 307.29 407.06 274.3C419.213 295.327 431.36 316.36 443.5 337.4Z" fill="white"/>
<path opacity="0.2" d="M410.91 288.66C409.973 289.485 408.861 290.086 407.658 290.418C406.455 290.751 405.192 290.806 403.965 290.58C402.737 290.354 401.577 289.852 400.572 289.112C399.566 288.373 398.742 287.414 398.16 286.31C364.985 312.317 328.286 333.482 289.16 349.17C289.824 350.226 290.241 351.418 290.378 352.658C290.515 353.898 290.369 355.152 289.951 356.328C289.534 357.503 288.855 358.568 287.966 359.443C287.077 360.318 286.002 360.981 284.82 361.38L307.53 400.73C310.12 399.803 312.95 399.793 315.546 400.704C318.142 401.614 320.346 403.388 321.79 405.73C360.916 390.042 397.615 368.877 430.79 342.87C429.482 340.443 429.049 337.641 429.565 334.932C430.08 332.224 431.512 329.776 433.62 328L433.69 327.94L411 288.61L410.91 288.66ZM371.05 366.86C361.3 372.47 348.63 368.72 343.05 359.02C337.47 349.32 341.05 337.33 350.8 331.72C360.55 326.11 372.8 329.04 378.35 338.72C383.9 348.4 380.81 361.26 371.05 366.86Z" fill="black"/>
<g opacity="0.2">
<path d="M368.18 357.55C368.69 358.41 369.18 359.28 369.69 360.15L367.77 361.26L366.28 358.67C364.179 359.803 361.781 360.264 359.41 359.99C359.31 358.99 359.22 357.99 359.12 357.05C361.069 357.308 363.052 356.999 364.83 356.16L362.15 351.51C359.15 352.37 355.9 353.09 354.03 349.86C352.66 347.48 353.22 344.45 356.67 342.01C356.16 341.13 355.67 340.26 355.15 339.38L357.06 338.27L358.55 340.86C360.257 339.958 362.16 339.491 364.09 339.5C364.23 340.5 364.36 341.44 364.5 342.41C362.951 342.432 361.422 342.772 360.01 343.41C360.91 344.983 361.813 346.55 362.72 348.11C365.67 347.24 368.94 346.38 370.81 349.61C372.18 351.94 371.63 355 368.18 357.55ZM360.52 348.69L358.13 344.55C356.62 345.76 356.39 346.99 356.99 348.01C357.59 349.03 358.94 349.07 360.52 348.69ZM367.96 351.54C367.3 350.4 365.96 350.47 364.34 350.89C365.14 352.26 365.93 353.64 366.72 355.01C368.28 353.76 368.54 352.54 368 351.54H367.96Z" fill="black"/>
</g>
<path d="M382.03 413.96H421.06V406.3H382.03V413.96Z" fill="#FF531A"/>
<path opacity="0.2" d="M382.03 413.96H390.63V406.3H382.03V413.96Z" fill="black"/>
<path opacity="0.2" d="M394.76 406.29H391.63V413.95H394.76V406.29Z" fill="black"/>
<path opacity="0.2" d="M398.77 406.29H396.63V413.95H398.77V406.29Z" fill="black"/>
<path opacity="0.2" d="M402.7 406.29H401.63V413.95H402.7V406.29Z" fill="black"/>
<path opacity="0.2" d="M409.17 406.29H408.63V413.95H409.17V406.29Z" fill="black"/>
<path d="M383.87 406.34H422.9V398.68H383.87V406.34Z" fill="#FF531A"/>
<path opacity="0.2" d="M383.87 406.34H392.47V398.68H383.87V406.34Z" fill="black"/>
<path opacity="0.2" d="M396.6 398.67H393.47V406.33H396.6V398.67Z" fill="black"/>
<path opacity="0.2" d="M400.61 398.67H398.47V406.33H400.61V398.67Z" fill="black"/>
<path opacity="0.2" d="M404.54 398.67H403.47V406.33H404.54V398.67Z" fill="black"/>
<path opacity="0.2" d="M411.01 398.67H410.47V406.33H411.01V398.67Z" fill="black"/>
<path d="M380.39 398.72H419.42V391.06H380.39V398.72Z" fill="#FF531A"/>
<path opacity="0.2" d="M380.39 398.72H388.99V391.06H380.39V398.72Z" fill="black"/>
<path opacity="0.2" d="M393.11 391.05H389.98V398.71H393.11V391.05Z" fill="black"/>
<path opacity="0.2" d="M397.12 391.05H394.98V398.71H397.12V391.05Z" fill="black"/>
<path opacity="0.2" d="M401.05 391.05H399.98V398.71H401.05V391.05Z" fill="black"/>
<path opacity="0.2" d="M407.52 391.05H406.98V398.71H407.52V391.05Z" fill="black"/>
<path d="M382.03 391.1H421.06V383.44H382.03V391.1Z" fill="#FF531A"/>
<path opacity="0.2" d="M382.03 391.1H390.63V383.44H382.03V391.1Z" fill="black"/>
<path opacity="0.2" d="M394.76 383.43H391.63V391.09H394.76V383.43Z" fill="black"/>
<path opacity="0.2" d="M398.77 383.43H396.63V391.09H398.77V383.43Z" fill="black"/>
<path opacity="0.2" d="M402.7 383.43H401.63V391.09H402.7V383.43Z" fill="black"/>
<path opacity="0.2" d="M409.17 383.43H408.63V391.09H409.17V383.43Z" fill="black"/>
<path d="M383.02 383.48H422.05V375.82H383.02V383.48Z" fill="#FF531A"/>
<path opacity="0.2" d="M383.02 383.48H391.62V375.82H383.02V383.48Z" fill="black"/>
<path opacity="0.2" d="M395.76 375.81H392.63V383.47H395.76V375.81Z" fill="black"/>
<path opacity="0.2" d="M399.77 375.81H397.63V383.47H399.77V375.81Z" fill="black"/>
<path opacity="0.2" d="M403.7 375.81H402.63V383.47H403.7V375.81Z" fill="black"/>
<path opacity="0.2" d="M410.17 375.81H409.63V383.47H410.17V375.81Z" fill="black"/>
<path d="M382.02 375.86H421.05V368.2H382.02V375.86Z" fill="#FF531A"/>
<path opacity="0.2" d="M382.02 375.86H390.62V368.2H382.02V375.86Z" fill="black"/>
<path opacity="0.2" d="M394.76 368.19H391.63V375.85H394.76V368.19Z" fill="black"/>
<path opacity="0.2" d="M398.77 368.19H396.63V375.85H398.77V368.19Z" fill="black"/>
<path opacity="0.2" d="M402.7 368.19H401.63V375.85H402.7V368.19Z" fill="black"/>
<path opacity="0.2" d="M409.17 368.19H408.63V375.85H409.17V368.19Z" fill="black"/>
<path d="M382.02 368.24H421.05V360.58H382.02V368.24Z" fill="#FF531A"/>
<path opacity="0.2" d="M382.02 368.24H390.62V360.58H382.02V368.24Z" fill="black"/>
<path opacity="0.2" d="M394.76 360.57H391.63V368.23H394.76V360.57Z" fill="black"/>
<path opacity="0.2" d="M398.77 360.57H396.63V368.23H398.77V360.57Z" fill="black"/>
<path opacity="0.2" d="M402.7 360.57H401.63V368.23H402.7V360.57Z" fill="black"/>
<path opacity="0.2" d="M409.17 360.57H408.63V368.23H409.17V360.57Z" fill="black"/>
<path d="M384.02 360.62H423.05V352.96H384.02V360.62Z" fill="#FF531A"/>
<path opacity="0.2" d="M384.02 360.62H392.62V352.96H384.02V360.62Z" fill="black"/>
<path opacity="0.2" d="M396.76 352.95H393.63V360.61H396.76V352.95Z" fill="black"/>
<path opacity="0.2" d="M400.77 352.95H398.63V360.61H400.77V352.95Z" fill="black"/>
<path opacity="0.2" d="M404.7 352.95H403.63V360.61H404.7V352.95Z" fill="black"/>
<path opacity="0.2" d="M411.17 352.95H410.63V360.61H411.17V352.95Z" fill="black"/>
<path d="M382.02 353H421.05V345.34H382.02V353Z" fill="#FF531A"/>
<path opacity="0.2" d="M382.02 353H390.62V345.34H382.02V353Z" fill="black"/>
<path opacity="0.2" d="M394.76 345.33H391.63V352.99H394.76V345.33Z" fill="black"/>
<path opacity="0.2" d="M398.77 345.33H396.63V352.99H398.77V345.33Z" fill="black"/>
<path opacity="0.2" d="M402.7 345.33H401.63V352.99H402.7V345.33Z" fill="black"/>
<path opacity="0.2" d="M409.17 345.33H408.63V352.99H409.17V345.33Z" fill="black"/>
<path d="M380.02 345.38H419.05V337.72H380.02V345.38Z" fill="#FF531A"/>
<path opacity="0.2" d="M380.02 345.38H388.62V337.72H380.02V345.38Z" fill="black"/>
<path opacity="0.2" d="M392.76 337.71H389.63V345.37H392.76V337.71Z" fill="black"/>
<path opacity="0.2" d="M396.77 337.71H394.63V345.37H396.77V337.71Z" fill="black"/>
<path opacity="0.2" d="M400.7 337.71H399.63V345.37H400.7V337.71Z" fill="black"/>
<path opacity="0.2" d="M407.17 337.71H406.63V345.37H407.17V337.71Z" fill="black"/>
<path d="M347.61 413.96H386.64V406.3H347.61V413.96Z" fill="#FF531A"/>
<path opacity="0.2" d="M347.61 413.96H356.21V406.3H347.61V413.96Z" fill="black"/>
<path opacity="0.2" d="M360.33 406.29H357.2V413.95H360.33V406.29Z" fill="black"/>
<path opacity="0.2" d="M364.34 406.29H362.2V413.95H364.34V406.29Z" fill="black"/>
<path opacity="0.2" d="M368.27 406.29H367.2V413.95H368.27V406.29Z" fill="black"/>
<path opacity="0.2" d="M374.74 406.29H374.2V413.95H374.74V406.29Z" fill="black"/>
<path d="M349.61 406.34H388.64V398.68H349.61V406.34Z" fill="#FF531A"/>
<path opacity="0.2" d="M349.61 406.34H358.21V398.68H349.61V406.34Z" fill="black"/>
<path opacity="0.2" d="M362.33 398.67H359.2V406.33H362.33V398.67Z" fill="black"/>
<path opacity="0.2" d="M366.34 398.67H364.2V406.33H366.34V398.67Z" fill="black"/>
<path opacity="0.2" d="M370.27 398.67H369.2V406.33H370.27V398.67Z" fill="black"/>
<path opacity="0.2" d="M376.74 398.67H376.2V406.33H376.74V398.67Z" fill="black"/>
<path d="M347.61 398.72H386.64V391.06H347.61V398.72Z" fill="#FF531A"/>
<path opacity="0.2" d="M347.61 398.72H356.21V391.06H347.61V398.72Z" fill="black"/>
<path opacity="0.2" d="M360.33 391.05H357.2V398.71H360.33V391.05Z" fill="black"/>
<path opacity="0.2" d="M364.34 391.05H362.2V398.71H364.34V391.05Z" fill="black"/>
<path opacity="0.2" d="M368.27 391.05H367.2V398.71H368.27V391.05Z" fill="black"/>
<path opacity="0.2" d="M374.74 391.05H374.2V398.71H374.74V391.05Z" fill="black"/>
<path d="M348.61 391.1H387.64V383.44H348.61V391.1Z" fill="#FF531A"/>
<path opacity="0.2" d="M348.61 391.1H357.21V383.44H348.61V391.1Z" fill="black"/>
<path opacity="0.2" d="M361.33 383.43H358.2V391.09H361.33V383.43Z" fill="black"/>
<path opacity="0.2" d="M365.34 383.43H363.2V391.09H365.34V383.43Z" fill="black"/>
<path opacity="0.2" d="M369.27 383.43H368.2V391.09H369.27V383.43Z" fill="black"/>
<path opacity="0.2" d="M375.74 383.43H375.2V391.09H375.74V383.43Z" fill="black"/>
<path d="M347.61 383.48H386.64V375.82H347.61V383.48Z" fill="#FF531A"/>
<path opacity="0.2" d="M347.61 383.48H356.21V375.82H347.61V383.48Z" fill="black"/>
<path opacity="0.2" d="M360.34 375.81H357.21V383.47H360.34V375.81Z" fill="black"/>
<path opacity="0.2" d="M364.35 375.81H362.21V383.47H364.35V375.81Z" fill="black"/>
<path opacity="0.2" d="M368.28 375.81H367.21V383.47H368.28V375.81Z" fill="black"/>
<path opacity="0.2" d="M374.75 375.81H374.21V383.47H374.75V375.81Z" fill="black"/>
<path d="M350.61 375.86H389.64V368.2H350.61V375.86Z" fill="#FF531A"/>
<path opacity="0.2" d="M350.61 375.86H359.21V368.2H350.61V375.86Z" fill="black"/>
<path opacity="0.2" d="M363.34 368.19H360.21V375.85H363.34V368.19Z" fill="black"/>
<path opacity="0.2" d="M367.35 368.19H365.21V375.85H367.35V368.19Z" fill="black"/>
<path opacity="0.2" d="M371.28 368.19H370.21V375.85H371.28V368.19Z" fill="black"/>
<path opacity="0.2" d="M377.75 368.19H377.21V375.85H377.75V368.19Z" fill="black"/>
<path d="M321.81 97.5H176.12C170.376 97.5 165.72 102.156 165.72 107.9V403.56C165.72 409.304 170.376 413.96 176.12 413.96H321.81C327.554 413.96 332.21 409.304 332.21 403.56V107.9C332.21 102.156 327.554 97.5 321.81 97.5Z" fill="#263238"/>
<path d="M326.65 107.53V403.39C326.65 403.93 326.542 404.465 326.334 404.964C326.125 405.462 325.819 405.914 325.433 406.293C325.048 406.672 324.591 406.97 324.089 407.171C323.587 407.371 323.05 407.469 322.51 407.46H175.09C174.599 407.467 174.112 407.375 173.658 407.188C173.204 407.002 172.792 406.726 172.447 406.377C172.103 406.027 171.832 405.612 171.652 405.155C171.472 404.699 171.386 404.211 171.4 403.72V107.19C171.382 106.758 171.45 106.327 171.6 105.921C171.749 105.515 171.977 105.142 172.271 104.825C172.564 104.507 172.918 104.251 173.31 104.07C173.703 103.889 174.128 103.787 174.56 103.77H211.42C211.935 103.779 212.436 103.942 212.858 104.238C213.281 104.534 213.605 104.949 213.79 105.43L215.32 109.19C215.508 109.667 215.834 110.078 216.256 110.37C216.678 110.662 217.177 110.822 217.69 110.83H280.44C280.951 110.826 281.45 110.67 281.872 110.382C282.294 110.093 282.621 109.685 282.81 109.21L284.34 105.44C284.523 104.957 284.847 104.54 285.269 104.242C285.692 103.945 286.193 103.78 286.71 103.77H323C323.981 103.788 324.916 104.194 325.599 104.898C326.283 105.603 326.661 106.548 326.65 107.53Z" fill="#FF531A"/>
<path opacity="0.7" d="M326.65 116.09H171.39V395.25H326.65V116.09Z" fill="white"/>
<path opacity="0.6" d="M245.51 106.27C246.686 106.27 247.64 105.316 247.64 104.14C247.64 102.964 246.686 102.01 245.51 102.01C244.334 102.01 243.38 102.964 243.38 104.14C243.38 105.316 244.334 106.27 245.51 106.27Z" fill="white"/>
<path opacity="0.6" d="M252 104.14C252 104.411 251.919 104.677 251.768 104.902C251.617 105.128 251.403 105.303 251.152 105.407C250.901 105.51 250.625 105.537 250.359 105.483C250.093 105.429 249.849 105.298 249.658 105.105C249.467 104.913 249.337 104.668 249.285 104.401C249.233 104.135 249.262 103.859 249.367 103.609C249.472 103.359 249.65 103.145 249.876 102.996C250.103 102.847 250.369 102.768 250.64 102.77C250.819 102.77 250.997 102.806 251.163 102.874C251.328 102.943 251.479 103.045 251.605 103.172C251.732 103.299 251.832 103.45 251.899 103.616C251.967 103.783 252.001 103.961 252 104.14Z" fill="white"/>
<path opacity="0.6" d="M188.9 112.01H190.82V109.45H188.9V112.01Z" fill="white"/>
<path opacity="0.6" d="M185.78 112.01H187.7V108.6H185.78V112.01Z" fill="white"/>
<path opacity="0.6" d="M182.65 112H184.57V107.74H182.65V112Z" fill="white"/>
<path opacity="0.6" d="M179.53 112.01H181.45V106.89H179.53V112.01Z" fill="white"/>
<path opacity="0.6" d="M309.49 108.52H308.35V111.08H309.49V108.52Z" fill="white"/>
<path opacity="0.6" d="M310.26 112H319.32V107.58H310.26V112Z" fill="white"/>
<path d="M326.73 116.12H171.2V141.32H326.73V116.12Z" fill="#0A2A5B"/>
<g opacity="0.7">
<path d="M181.75 133.4C181.488 133.399 181.236 133.295 181.05 133.11L177.29 129.36C177.196 129.267 177.122 129.156 177.071 129.035C177.02 128.913 176.994 128.782 176.994 128.65C176.994 128.518 177.02 128.387 177.071 128.265C177.122 128.144 177.196 128.033 177.29 127.94L181.05 124.19C181.241 124.026 181.487 123.941 181.739 123.95C181.991 123.96 182.229 124.064 182.408 124.242C182.586 124.421 182.69 124.659 182.7 124.911C182.709 125.163 182.624 125.409 182.46 125.6L179.41 128.65L182.46 131.65C182.646 131.837 182.751 132.091 182.751 132.355C182.751 132.619 182.646 132.873 182.46 133.06C182.371 133.162 182.262 133.244 182.14 133.303C182.018 133.361 181.885 133.394 181.75 133.4Z" fill="white"/>
</g>
<g opacity="0.7">
<path d="M320.94 125C320.94 125.225 320.873 125.446 320.748 125.633C320.623 125.821 320.444 125.967 320.236 126.053C320.028 126.14 319.799 126.162 319.578 126.118C319.356 126.074 319.153 125.966 318.994 125.806C318.834 125.647 318.726 125.444 318.682 125.222C318.638 125.001 318.66 124.772 318.747 124.564C318.833 124.355 318.979 124.177 319.167 124.052C319.354 123.927 319.574 123.86 319.8 123.86C320.102 123.86 320.392 123.98 320.606 124.194C320.82 124.408 320.94 124.698 320.94 125Z" fill="white"/>
<path d="M320.94 128.65C320.94 128.875 320.873 129.096 320.748 129.283C320.623 129.471 320.444 129.617 320.236 129.703C320.028 129.79 319.799 129.812 319.578 129.768C319.356 129.724 319.153 129.616 318.994 129.456C318.834 129.297 318.726 129.094 318.682 128.872C318.638 128.651 318.66 128.422 318.747 128.214C318.833 128.005 318.979 127.827 319.167 127.702C319.354 127.577 319.574 127.51 319.8 127.51C320.102 127.51 320.392 127.63 320.606 127.844C320.82 128.058 320.94 128.348 320.94 128.65Z" fill="white"/>
<path d="M320.94 132.31C320.94 132.535 320.873 132.756 320.748 132.943C320.623 133.131 320.444 133.277 320.236 133.363C320.028 133.45 319.799 133.472 319.578 133.428C319.356 133.384 319.153 133.276 318.994 133.116C318.834 132.957 318.726 132.754 318.682 132.532C318.638 132.311 318.66 132.082 318.747 131.874C318.833 131.665 318.979 131.487 319.167 131.362C319.354 131.237 319.574 131.17 319.8 131.17C320.102 131.17 320.392 131.29 320.606 131.504C320.82 131.718 320.94 132.008 320.94 132.31Z" fill="white"/>
</g>
<path d="M230.56 163.85V165.2H229.56V163.87C228.502 163.838 227.478 163.49 226.62 162.87L227.16 161.66C227.857 162.185 228.69 162.501 229.56 162.57V160.17C228.23 159.85 226.8 159.42 226.8 157.75C226.8 156.53 227.69 155.46 229.56 155.28V153.92H230.56V155.25C231.423 155.293 232.262 155.551 233 156L232.5 157.21C231.906 156.859 231.245 156.638 230.56 156.56V159C231.89 159.33 233.34 159.75 233.34 161.41C233.34 162.61 232.44 163.66 230.56 163.85ZM229.56 158.72V156.59C228.71 156.72 228.35 157.15 228.35 157.68C228.35 158.21 228.88 158.52 229.58 158.72H229.56ZM231.79 161.49C231.79 160.9 231.26 160.63 230.54 160.42V162.55C231.44 162.41 231.81 162 231.81 161.49H231.79Z" fill="#FF531A"/>
<path d="M240.51 155.36V163.76H239V156.67H237.22V155.36H240.51Z" fill="#FF531A"/>
<path d="M249 161.35C249 162.91 247.65 163.88 245.56 163.88C243.47 163.88 242.14 162.88 242.14 161.35C242.134 160.92 242.259 160.499 242.498 160.141C242.738 159.784 243.08 159.508 243.48 159.35C243.165 159.18 242.904 158.925 242.728 158.613C242.551 158.302 242.465 157.948 242.48 157.59C242.48 156.15 243.74 155.25 245.6 155.25C247.46 155.25 248.74 156.15 248.74 157.59C248.75 157.955 248.654 158.315 248.464 158.628C248.274 158.94 247.999 159.191 247.67 159.35C248.069 159.509 248.41 159.785 248.647 160.142C248.885 160.5 249.008 160.921 249 161.35ZM247.43 161.35C247.43 160.52 246.71 160.01 245.56 160.01C244.41 160.01 243.71 160.52 243.71 161.35C243.71 162.18 244.41 162.7 245.56 162.7C246.71 162.7 247.42 162.15 247.42 161.3L247.43 161.35ZM244 157.65C244 158.37 244.59 158.83 245.58 158.83C246.57 158.83 247.19 158.37 247.19 157.65C247.19 156.93 246.54 156.47 245.58 156.47C244.62 156.47 244 156.9 244 157.65Z" fill="#FF531A"/>
<path d="M250.07 162.85C250.07 162.652 250.129 162.459 250.239 162.294C250.348 162.13 250.505 162.002 250.687 161.926C250.87 161.85 251.071 161.831 251.265 161.869C251.459 161.908 251.637 162.003 251.777 162.143C251.917 162.283 252.012 162.461 252.051 162.655C252.089 162.849 252.07 163.05 251.994 163.233C251.918 163.415 251.79 163.572 251.626 163.681C251.461 163.791 251.268 163.85 251.07 163.85C250.805 163.85 250.55 163.745 250.363 163.557C250.175 163.37 250.07 163.115 250.07 162.85Z" fill="#FF531A"/>
<path d="M255.77 155.36V163.76H254.21V156.67H252.44V155.36H255.77Z" fill="#FF531A"/>
<path d="M263.52 162.44V163.76H257.33V162.76L260.67 159.6C261.48 158.82 261.67 158.33 261.67 157.86C261.67 157.09 261.14 156.65 260.11 156.65C259.731 156.624 259.352 156.69 259.004 156.841C258.656 156.993 258.349 157.225 258.11 157.52L257.02 156.68C257.407 156.217 257.897 155.85 258.451 155.608C259.005 155.367 259.607 155.258 260.21 155.29C262.03 155.29 263.21 156.22 263.21 157.7C263.198 158.219 263.066 158.728 262.825 159.188C262.584 159.647 262.24 160.045 261.82 160.35L259.57 162.49L263.52 162.44Z" fill="#FF531A"/>
<path d="M271.24 161.35C271.24 162.91 269.88 163.88 267.8 163.88C265.72 163.88 264.38 162.88 264.38 161.35C264.374 160.92 264.499 160.499 264.739 160.141C264.978 159.784 265.32 159.508 265.72 159.35C265.405 159.18 265.145 158.925 264.968 158.613C264.791 158.302 264.705 157.948 264.72 157.59C264.72 156.15 265.98 155.25 267.84 155.25C269.7 155.25 270.98 156.15 270.98 157.59C270.987 157.955 270.891 158.314 270.701 158.626C270.512 158.937 270.237 159.189 269.91 159.35C270.309 159.509 270.65 159.785 270.887 160.142C271.125 160.5 271.248 160.921 271.24 161.35ZM269.67 161.35C269.67 160.52 268.95 160.01 267.8 160.01C266.65 160.01 265.95 160.52 265.95 161.35C265.95 162.18 266.64 162.7 267.8 162.7C268.96 162.7 269.67 162.15 269.67 161.3V161.35ZM266.21 157.7C266.21 158.42 266.81 158.88 267.8 158.88C268.79 158.88 269.4 158.42 269.4 157.7C269.4 156.98 268.76 156.52 267.8 156.52C266.84 156.52 266.21 156.9 266.21 157.65V157.7Z" fill="#FF531A"/>
<path d="M238.89 213.62V214.36H238.34V213.62C237.754 213.604 237.186 213.412 236.71 213.07L237.01 212.4C237.398 212.688 237.859 212.861 238.34 212.9V211.57C237.6 211.39 236.81 211.15 236.81 210.23C236.81 209.55 237.3 208.96 238.34 208.86V208.11H238.89V208.85C239.367 208.867 239.831 209.004 240.24 209.25L239.97 209.92C239.637 209.731 239.27 209.608 238.89 209.56V210.91C239.63 211.09 240.43 211.32 240.43 212.25C240.43 212.92 239.93 213.51 238.89 213.62ZM238.34 210.77V209.58C237.87 209.66 237.67 209.9 237.67 210.19C237.67 210.48 238 210.66 238.34 210.77ZM239.58 212.31C239.58 211.98 239.29 211.83 238.89 211.71V212.89C239.37 212.82 239.58 212.59 239.58 212.31Z" fill="black"/>
<path d="M244.4 208.91V213.56H243.54V209.63H242.54V208.91H244.4Z" fill="black"/>
<path d="M246.93 208.91V213.56H246.07V209.63H245.07V208.91H246.93Z" fill="black"/>
<path d="M251.24 212.13C251.24 212.95 250.65 213.63 249.4 213.63C248.774 213.643 248.16 213.454 247.65 213.09L248.02 212.42C248.411 212.724 248.894 212.886 249.39 212.88C250.01 212.88 250.39 212.6 250.39 212.17C250.39 211.74 250.11 211.44 249.14 211.44H248L248.24 208.91H251V209.63H249L248.9 210.71H249.34C250.69 210.71 251.24 211.31 251.24 212.13Z" fill="black"/>
<path d="M252.8 213.06C252.788 213.258 252.737 213.452 252.65 213.63L252.31 214.57H251.77L252.04 213.57C251.944 213.531 251.862 213.462 251.807 213.375C251.751 213.287 251.724 213.184 251.73 213.08C251.719 213.004 251.725 212.926 251.747 212.852C251.77 212.778 251.807 212.71 251.858 212.652C251.909 212.594 251.971 212.547 252.041 212.515C252.112 212.483 252.188 212.467 252.265 212.467C252.342 212.467 252.418 212.483 252.488 212.515C252.559 212.547 252.621 212.594 252.672 212.652C252.722 212.71 252.76 212.778 252.782 212.852C252.804 212.926 252.81 213.004 252.8 213.08V213.06Z" fill="black"/>
<path d="M256.8 212.83V213.56H253.37V213L255.22 211.25C255.378 211.135 255.509 210.985 255.6 210.811C255.692 210.638 255.743 210.446 255.75 210.25C255.75 209.83 255.46 209.58 254.89 209.58C254.681 209.568 254.472 209.606 254.28 209.691C254.089 209.776 253.921 209.906 253.79 210.07L253.19 209.6C253.405 209.343 253.677 209.14 253.984 209.006C254.291 208.873 254.625 208.812 254.96 208.83C255.96 208.83 256.62 209.34 256.62 210.17C256.614 210.458 256.542 210.741 256.408 210.996C256.274 211.251 256.083 211.471 255.85 211.64L254.61 212.82L256.8 212.83Z" fill="black"/>
<path d="M257.28 211.23C257.28 209.7 258.12 208.84 259.22 208.84C260.32 208.84 261.17 209.7 261.17 211.23C261.17 212.76 260.33 213.63 259.22 213.63C258.11 213.63 257.28 212.76 257.28 211.23ZM260.28 211.23C260.28 210.11 259.84 209.59 259.2 209.59C258.56 209.59 258.13 210.11 258.13 211.23C258.13 212.35 258.57 212.88 259.2 212.88C259.83 212.88 260.3 212.36 260.3 211.23H260.28Z" fill="black"/>
<path d="M212.75 202.72C210.989 209.884 211.392 217.41 213.908 224.345C216.425 231.28 220.941 237.313 226.886 241.681C232.831 246.05 239.938 248.557 247.308 248.886C254.678 249.215 261.981 247.351 268.291 243.53C274.602 239.709 279.638 234.102 282.762 227.419C285.886 220.735 286.959 213.276 285.843 205.983C284.728 198.691 281.474 191.892 276.495 186.449C271.516 181.005 265.034 177.16 257.87 175.4C253.113 174.23 248.173 174.009 243.331 174.749C238.489 175.489 233.84 177.176 229.65 179.713C225.46 182.25 221.811 185.587 218.911 189.535C216.012 193.483 213.918 197.963 212.75 202.72ZM228.16 206.5C229.17 202.384 231.379 198.659 234.506 195.798C237.633 192.937 241.539 191.067 245.728 190.426C249.918 189.784 254.204 190.399 258.044 192.194C261.884 193.988 265.106 196.881 267.302 200.506C269.498 204.132 270.569 208.327 270.381 212.561C270.193 216.796 268.753 220.879 266.243 224.295C263.734 227.711 260.268 230.306 256.284 231.753C252.3 233.199 247.976 233.431 243.86 232.42C238.341 231.064 233.587 227.572 230.642 222.711C227.698 217.85 226.805 212.019 228.16 206.5Z" fill="#0A2A5B"/>
<path d="M217.17 231.13C220.588 236.701 225.411 241.277 231.155 244.397C236.899 247.518 243.361 249.075 249.896 248.911C256.431 248.747 262.808 246.869 268.388 243.465C273.968 240.061 278.556 235.25 281.691 229.514C284.827 223.778 286.4 217.32 286.253 210.785C286.106 204.249 284.244 197.868 280.854 192.279C277.464 186.69 272.665 182.09 266.938 178.94C261.21 175.79 254.755 174.2 248.22 174.33C249.441 174.309 250.65 174.571 251.753 175.095C252.856 175.619 253.823 176.391 254.578 177.35C255.333 178.31 255.856 179.431 256.106 180.626C256.356 181.821 256.327 183.058 256.02 184.24C255.587 185.927 254.601 187.42 253.22 188.48C251.849 189.558 250.164 190.158 248.42 190.19H247.97C251.741 190.014 255.491 190.838 258.841 192.578C262.192 194.317 265.023 196.911 267.049 200.096C269.075 203.281 270.223 206.945 270.378 210.717C270.534 214.489 269.689 218.234 267.932 221.575C266.174 224.916 263.565 227.733 260.369 229.742C257.173 231.75 253.502 232.879 249.73 233.013C245.957 233.148 242.216 232.283 238.885 230.507C235.554 228.731 232.751 226.107 230.76 222.9C229.654 221.09 227.879 219.789 225.82 219.28C224.296 218.905 222.695 218.992 221.22 219.528C219.746 220.065 218.464 221.027 217.537 222.294C216.61 223.56 216.081 225.073 216.015 226.641C215.95 228.209 216.352 229.761 217.17 231.1V231.13Z" fill="#FF531A"/>
<path d="M188.2 275H184.64V286.63H188.2V275Z" fill="#FF531A"/>
<path d="M197.14 278H193.58V286.63H197.14V278Z" fill="#FF531A"/>
<path d="M206.07 265H202.51V286.63H206.07V265Z" fill="#FF531A"/>
<path d="M215.01 260H211.45V286.63H215.01V260Z" fill="#FF531A"/>
<path d="M223.95 265H220.39V286.63H223.95V265Z" fill="#FF531A"/>
<path d="M232.88 275H229.32V286.63H232.88V275Z" fill="#FF531A"/>
<path d="M241.81 277H238.25V286.63H241.81V277Z" fill="#FF531A"/>
<path d="M250.75 278H247.19V286.63H250.75V278Z" fill="#FF531A"/>
<path d="M259.69 275H256.13V286.63H259.69V275Z" fill="#FF531A"/>
<path d="M268.62 270H265.06V286.63H268.62V270Z" fill="#FF531A"/>
<path d="M277.56 266H274V286.63H277.56V266Z" fill="#FF531A"/>
<path d="M286.49 262H282.93V286.63H286.49V262Z" fill="#FF531A"/>
<path d="M295.43 257H291.87V286.63H295.43V257Z" fill="#FF531A"/>
<path d="M304.37 264H300.81V286.63H304.37V264Z" fill="#FF531A"/>
<path d="M313.3 275H309.74V286.63H313.3V275Z" fill="#FF531A"/>
<path d="M206.07 265H202.51V270H206.07V265Z" fill="#0A2A5B"/>
<path d="M215.01 260H211.45V270H215.01V260Z" fill="#0A2A5B"/>
<path d="M223.95 265H220.39V270H223.95V265Z" fill="#0A2A5B"/>
<path d="M277.56 266H274V270H277.56V266Z" fill="#0A2A5B"/>
<path d="M286.49 262H282.93V270H286.49V262Z" fill="#0A2A5B"/>
<path d="M295.43 257H291.87V270H295.43V257Z" fill="#0A2A5B"/>
<path d="M304.37 264H300.81V270H304.37V264Z" fill="#0A2A5B"/>
<path d="M313.25 301H184.7C183.054 301 181.72 302.334 181.72 303.98V319.31C181.72 320.956 183.054 322.29 184.7 322.29H313.25C314.896 322.29 316.23 320.956 316.23 319.31V303.98C316.23 302.334 314.896 301 313.25 301Z" fill="#FF531A"/>
<g opacity="0.7">
<path d="M282.73 311.59H281.56V312.76H280.84V311.59H279.67V310.93H280.84V309.76H281.56V310.93H282.73V311.59Z" fill="white"/>
<path d="M287.4 313.64V314.39H286.86V313.65C286.273 313.638 285.704 313.446 285.23 313.1L285.53 312.43C285.918 312.717 286.379 312.89 286.86 312.93V311.6C286.12 311.42 285.33 311.18 285.33 310.26C285.33 309.58 285.82 308.99 286.86 308.89V308.13H287.4V308.87C287.877 308.895 288.34 309.036 288.75 309.28L288.48 309.95C288.15 309.755 287.781 309.632 287.4 309.59V310.94C288.14 311.11 288.94 311.35 288.94 312.27C288.94 313 288.45 313.54 287.4 313.64ZM286.86 310.79V309.61C286.38 309.68 286.18 309.92 286.18 310.22C286.18 310.52 286.47 310.68 286.86 310.79ZM288.09 312.33C288.09 312.01 287.8 311.85 287.4 311.74V312.92C287.89 312.84 288.09 312.62 288.09 312.33Z" fill="white"/>
<path d="M294.82 308.93V309.51L293 313.59H292.07L293.82 309.66H292V310.46H291.2V308.93H294.82Z" fill="white"/>
<path d="M298.61 312.16C298.61 312.98 298.02 313.66 296.77 313.66C296.144 313.673 295.53 313.484 295.02 313.12L295.39 312.45C295.785 312.746 296.266 312.904 296.76 312.9C297.38 312.9 297.76 312.63 297.76 312.19C297.76 311.75 297.48 311.47 296.51 311.47H295.39L295.63 308.93H298.36V309.66H296.36L296.26 310.74H296.7C298.06 310.74 298.61 311.33 298.61 312.16Z" fill="white"/>
<path d="M300.17 313.08C300.159 313.281 300.108 313.479 300.02 313.66L299.68 314.59H299.14L299.41 313.59C299.313 313.549 299.231 313.479 299.176 313.389C299.12 313.3 299.094 313.195 299.1 313.09C299.09 313.014 299.096 312.936 299.118 312.862C299.14 312.788 299.177 312.72 299.228 312.662C299.279 312.604 299.341 312.557 299.411 312.525C299.482 312.493 299.558 312.477 299.635 312.477C299.712 312.477 299.788 312.493 299.858 312.525C299.929 312.557 299.991 312.604 300.042 312.662C300.093 312.72 300.13 312.788 300.152 312.862C300.174 312.936 300.18 313.014 300.17 313.09V313.08Z" fill="white"/>
<path d="M300.65 311.26C300.65 309.73 301.49 308.87 302.59 308.87C303.69 308.87 304.59 309.73 304.59 311.26C304.59 312.79 303.76 313.66 302.59 313.66C301.42 313.66 300.65 312.79 300.65 311.26ZM303.65 311.26C303.65 310.14 303.21 309.62 302.57 309.62C301.93 309.62 301.5 310.14 301.5 311.26C301.5 312.38 301.94 312.9 302.57 312.9C303.2 312.9 303.67 312.39 303.67 311.26H303.65Z" fill="white"/>
<path d="M308.51 312.16C308.51 312.98 307.92 313.66 306.67 313.66C306.044 313.673 305.43 313.484 304.92 313.12L305.29 312.45C305.685 312.746 306.166 312.904 306.66 312.9C307.28 312.9 307.66 312.63 307.66 312.19C307.66 311.75 307.38 311.47 306.41 311.47H305.29L305.53 308.93H308.26V309.66H306.26L306.16 310.74H306.6C308 310.74 308.51 311.33 308.51 312.16Z" fill="white"/>
</g>
<path opacity="0.7" d="M222.76 310H191.44C191.124 310 190.822 309.875 190.599 309.651C190.375 309.428 190.25 309.126 190.25 308.81C190.249 308.653 190.279 308.497 190.338 308.352C190.397 308.206 190.484 308.074 190.595 307.962C190.706 307.851 190.837 307.762 190.982 307.702C191.127 307.641 191.283 307.61 191.44 307.61H222.76C223.077 307.613 223.379 307.74 223.602 307.965C223.825 308.19 223.95 308.493 223.95 308.81C223.947 309.125 223.821 309.426 223.599 309.649C223.376 309.871 223.075 309.997 222.76 310Z" fill="white"/>
<path opacity="0.7" d="M208.76 315.65H191.44C191.283 315.65 191.127 315.619 190.982 315.558C190.837 315.498 190.706 315.41 190.595 315.298C190.484 315.186 190.397 315.054 190.338 314.908C190.279 314.763 190.249 314.607 190.25 314.45C190.25 314.134 190.375 313.832 190.599 313.609C190.822 313.385 191.124 313.26 191.44 313.26H208.76C209.075 313.263 209.376 313.389 209.599 313.611C209.821 313.834 209.947 314.135 209.95 314.45C209.95 314.767 209.825 315.07 209.602 315.295C209.379 315.52 209.077 315.647 208.76 315.65Z" fill="white"/>
<path d="M313.25 330H184.7C183.054 330 181.72 331.334 181.72 332.98V348.31C181.72 349.956 183.054 351.29 184.7 351.29H313.25C314.896 351.29 316.23 349.956 316.23 348.31V332.98C316.23 331.334 314.896 330 313.25 330Z" fill="#FF531A"/>
<g opacity="0.7">
<path d="M280.43 340.39H282.26V341.09H280.43V340.39Z" fill="white"/>
<path d="M286.87 342.64V343.39H286.32V342.65C285.734 342.634 285.166 342.442 284.69 342.1L284.99 341.43C285.38 341.714 285.84 341.887 286.32 341.93V340.6C285.59 340.42 284.79 340.18 284.79 339.26C284.79 338.58 285.29 337.99 286.32 337.89V337.13H286.87V337.87C287.347 337.895 287.81 338.036 288.22 338.28L288 339C287.669 338.806 287.301 338.684 286.92 338.64V339.99C287.66 340.16 288.46 340.4 288.46 341.32C288.41 342 287.91 342.54 286.87 342.64ZM286.32 339.79V338.61C285.85 338.68 285.65 338.92 285.65 339.22C285.65 339.52 285.94 339.68 286.32 339.79ZM287.56 341.33C287.56 341.01 287.27 340.85 286.87 340.74V341.92C287.35 341.84 287.56 341.62 287.56 341.33Z" fill="white"/>
<path d="M294.16 341.16C294.16 341.98 293.57 342.66 292.31 342.66C291.684 342.671 291.071 342.482 290.56 342.12L290.93 341.45C291.326 341.745 291.807 341.903 292.3 341.9C292.92 341.9 293.3 341.63 293.3 341.19C293.3 340.75 293.01 340.47 292.05 340.47H290.92L291.16 337.93H293.89V338.66H291.89L291.79 339.74H292.24C293.61 339.74 294.16 340.33 294.16 341.16Z" fill="white"/>
<path d="M298 341.16C298 341.98 297.4 342.66 296.15 342.66C295.524 342.671 294.911 342.482 294.4 342.12L294.77 341.45C295.166 341.745 295.646 341.903 296.14 341.9C296.76 341.9 297.14 341.63 297.14 341.19C297.14 340.75 296.85 340.47 295.88 340.47H294.76L295 337.93H297.73V338.66H295.73L295.63 339.74H296.08C297.46 339.74 298 340.33 298 341.16Z" fill="white"/>
<path d="M299.57 342.08C299.559 342.281 299.508 342.479 299.42 342.66L299.08 343.59H298.54L298.8 342.59C298.705 342.547 298.624 342.476 298.569 342.387C298.514 342.298 298.486 342.195 298.49 342.09C298.486 342.018 298.497 341.945 298.522 341.877C298.548 341.809 298.587 341.747 298.638 341.695C298.689 341.643 298.75 341.603 298.818 341.576C298.885 341.549 298.957 341.537 299.03 341.54C299.101 341.539 299.172 341.552 299.238 341.578C299.304 341.605 299.364 341.645 299.415 341.695C299.465 341.746 299.505 341.806 299.532 341.872C299.558 341.938 299.571 342.009 299.57 342.08Z" fill="white"/>
<path d="M304.25 341.53H303.42V342.59H302.58V341.53H300V340.93L302.29 337.93H303.22L301.06 340.8H302.58V339.86H303.39V340.8H304.22L304.25 341.53Z" fill="white"/>
<path d="M308.45 341.25C308.45 342.12 307.7 342.66 306.54 342.66C305.38 342.66 304.65 342.12 304.65 341.25C304.644 341.011 304.712 340.777 304.844 340.578C304.977 340.379 305.167 340.226 305.39 340.14C305.207 340.047 305.055 339.904 304.952 339.726C304.849 339.549 304.8 339.345 304.81 339.14C304.81 338.35 305.51 337.85 306.54 337.85C307.57 337.85 308.29 338.35 308.29 339.14C308.299 339.347 308.247 339.552 308.14 339.73C308.033 339.908 307.877 340.05 307.69 340.14C307.916 340.224 308.109 340.376 308.245 340.575C308.382 340.774 308.453 341.009 308.45 341.25ZM307.58 341.25C307.58 340.79 307.18 340.5 306.58 340.5C305.98 340.5 305.58 340.79 305.58 341.25C305.58 341.71 305.97 342 306.58 342C307.19 342 307.58 341.7 307.58 341.23V341.25ZM305.67 339.25C305.67 339.65 306 339.91 306.54 339.91C307.08 339.91 307.44 339.65 307.44 339.25C307.44 338.85 307.08 338.59 306.54 338.59C306 338.59 305.67 338.78 305.67 339.2V339.25Z" fill="white"/>
</g>
<path opacity="0.7" d="M222.76 339H191.44C191.124 339 190.822 338.875 190.599 338.651C190.375 338.428 190.25 338.126 190.25 337.81C190.249 337.653 190.279 337.497 190.338 337.352C190.397 337.206 190.484 337.074 190.595 336.962C190.706 336.851 190.837 336.762 190.982 336.702C191.127 336.641 191.283 336.61 191.44 336.61H222.76C223.077 336.613 223.379 336.74 223.602 336.965C223.825 337.19 223.95 337.493 223.95 337.81C223.947 338.125 223.821 338.426 223.599 338.649C223.376 338.871 223.075 338.997 222.76 339Z" fill="white"/>
<path opacity="0.7" d="M208.76 344.65H191.44C191.283 344.65 191.127 344.619 190.982 344.558C190.837 344.498 190.706 344.41 190.595 344.298C190.484 344.186 190.397 344.054 190.338 343.908C190.279 343.763 190.249 343.607 190.25 343.45C190.25 343.134 190.375 342.832 190.599 342.609C190.822 342.385 191.124 342.26 191.44 342.26H208.76C209.075 342.263 209.376 342.389 209.599 342.611C209.821 342.834 209.947 343.135 209.95 343.45C209.95 343.767 209.825 344.07 209.602 344.295C209.379 344.52 209.077 344.647 208.76 344.65Z" fill="white"/>
<path d="M313.25 359H184.7C183.054 359 181.72 360.334 181.72 361.98V377.31C181.72 378.956 183.054 380.29 184.7 380.29H313.25C314.896 380.29 316.23 378.956 316.23 377.31V361.98C316.23 360.334 314.896 359 313.25 359Z" fill="#FF531A"/>
<g opacity="0.7">
<path d="M283.49 369.59H282.31V370.76H281.6V369.59H280.43V368.93H281.6V367.76H282.31V368.93H283.49V369.59Z" fill="white"/>
<path d="M288.16 371.64V372.39H287.61V371.65C287.024 371.634 286.456 371.442 285.98 371.1L286.28 370.43C286.67 370.714 287.13 370.887 287.61 370.93V369.6C286.88 369.42 286.08 369.18 286.08 368.26C286.08 367.58 286.58 366.99 287.61 366.89V366.13H288.16V366.87C288.637 366.895 289.1 367.036 289.51 367.28L289.24 367.95C288.909 367.756 288.541 367.634 288.16 367.59V368.94C288.9 369.11 289.7 369.35 289.7 370.27C289.7 371 289.2 371.54 288.16 371.64ZM287.61 368.79V367.61C287.14 367.68 286.94 367.92 286.94 368.22C286.94 368.52 287.23 368.68 287.61 368.79ZM288.85 370.33C288.85 370.01 288.56 369.85 288.16 369.74V370.92C288.65 370.84 288.85 370.62 288.85 370.33Z" fill="white"/>
<path d="M293.67 366.93V371.59H292.81V367.66H291.81V366.93H293.67Z" fill="white"/>
<path d="M298.37 370.25C298.37 371.12 297.62 371.66 296.46 371.66C295.3 371.66 294.57 371.12 294.57 370.25C294.564 370.011 294.632 369.777 294.764 369.578C294.897 369.379 295.087 369.226 295.31 369.14C295.127 369.047 294.975 368.904 294.872 368.726C294.769 368.549 294.719 368.345 294.73 368.14C294.73 367.35 295.43 366.85 296.46 366.85C297.49 366.85 298.21 367.35 298.21 368.14C298.218 368.346 298.167 368.55 298.062 368.727C297.958 368.904 297.804 369.048 297.62 369.14C297.844 369.226 298.035 369.379 298.17 369.577C298.304 369.776 298.374 370.01 298.37 370.25ZM297.5 370.25C297.5 369.79 297.1 369.5 296.5 369.5C295.9 369.5 295.5 369.79 295.5 370.25C295.5 370.71 295.89 371 296.5 371C297.11 371 297.5 370.7 297.5 370.23V370.25ZM295.59 368.25C295.59 368.65 295.92 368.91 296.46 368.91C297 368.91 297.36 368.65 297.36 368.25C297.36 367.85 297 367.59 296.46 367.59C295.92 367.59 295.59 367.78 295.59 368.2V368.25Z" fill="white"/>
<path d="M300.06 371.08C300.05 371.281 299.999 371.479 299.91 371.66L299.57 372.59H299L299.27 371.59C299.172 371.549 299.089 371.48 299.032 371.39C298.975 371.301 298.946 371.196 298.95 371.09C298.95 370.947 299.007 370.809 299.108 370.708C299.209 370.607 299.347 370.55 299.49 370.55C299.633 370.55 299.771 370.607 299.872 370.708C299.973 370.809 300.03 370.947 300.03 371.09L300.06 371.08Z" fill="white"/>
<path d="M304.06 370.86V371.59H300.63V371L302.48 369.24C302.93 368.81 303.01 368.54 303.01 368.24C303.01 367.81 302.71 367.57 302.14 367.57C301.933 367.559 301.727 367.597 301.538 367.68C301.348 367.763 301.181 367.89 301.05 368.05L300.45 367.59C300.664 367.331 300.935 367.127 301.243 366.993C301.55 366.859 301.885 366.8 302.22 366.82C303.22 366.82 303.88 367.33 303.88 368.15C303.874 368.438 303.802 368.721 303.668 368.976C303.534 369.231 303.343 369.451 303.11 369.62L301.86 370.81L304.06 370.86Z" fill="white"/>
<path d="M304.54 369.26C304.54 367.73 305.37 366.87 306.48 366.87C307.59 366.87 308.43 367.73 308.43 369.26C308.43 370.79 307.59 371.66 306.48 371.66C305.37 371.66 304.54 370.79 304.54 369.26ZM307.54 369.26C307.54 368.14 307.1 367.62 306.46 367.62C305.82 367.62 305.39 368.14 305.39 369.26C305.39 370.38 305.83 370.9 306.46 370.9C307.09 370.9 307.56 370.39 307.56 369.26H307.54Z" fill="white"/>
</g>
<path opacity="0.7" d="M222.76 368H191.44C191.124 368 190.822 367.875 190.599 367.651C190.375 367.428 190.25 367.126 190.25 366.81C190.249 366.653 190.279 366.497 190.338 366.352C190.397 366.206 190.484 366.074 190.595 365.962C190.706 365.851 190.837 365.762 190.982 365.702C191.127 365.641 191.283 365.61 191.44 365.61H222.76C223.077 365.613 223.379 365.74 223.602 365.965C223.825 366.19 223.95 366.493 223.95 366.81C223.947 367.125 223.821 367.426 223.599 367.649C223.376 367.871 223.075 367.997 222.76 368Z" fill="white"/>
<path opacity="0.7" d="M208.76 373.65H191.44C191.283 373.65 191.127 373.619 190.982 373.558C190.837 373.498 190.706 373.41 190.595 373.298C190.484 373.186 190.397 373.054 190.338 372.908C190.279 372.763 190.249 372.607 190.25 372.45C190.25 372.134 190.375 371.832 190.599 371.609C190.822 371.385 191.124 371.26 191.44 371.26H208.76C209.075 371.263 209.376 371.389 209.599 371.611C209.821 371.834 209.947 372.135 209.95 372.45C209.95 372.767 209.825 373.07 209.602 373.295C209.379 373.52 209.077 373.647 208.76 373.65Z" fill="white"/>
<path d="M109.264 155.764L122.984 155.774C125.022 155.775 126.675 154.124 126.677 152.086L126.686 138.366C126.688 136.328 125.037 134.675 122.999 134.674L109.279 134.664C107.241 134.663 105.588 136.314 105.586 138.352L105.577 152.072C105.575 154.11 107.226 155.763 109.264 155.764Z" fill="#FF531A"/>
<path opacity="0.6" d="M110.33 141.06C111.83 138.64 114.67 139.57 116.14 141.45C117.61 139.57 120.46 138.65 121.95 141.07C124.46 145.15 119.28 148.93 116.83 150.4L116.14 150.82C115.94 150.71 115.72 150.57 115.44 150.4C113 148.92 107.82 145.14 110.33 141.06Z" fill="white"/>
<path d="M113.87 154.13C113.87 154.13 116.63 160.46 122.87 162.44C122.87 162.44 119.44 160.44 119.71 153.87L113.87 154.13Z" fill="#FF531A"/>
<path d="M108 195.85C108.015 195.967 108.004 196.086 107.968 196.198C107.931 196.311 107.87 196.413 107.788 196.498C107.707 196.584 107.607 196.65 107.497 196.692C107.386 196.733 107.268 196.75 107.15 196.74L98.0001 196.5C97.7475 196.487 97.5078 196.384 97.3244 196.21C97.141 196.036 97.026 195.802 97.0001 195.55L95.4401 177.46C95.4305 177.338 95.4452 177.215 95.4833 177.098C95.5215 176.982 95.5822 176.874 95.6621 176.781C95.7421 176.688 95.8396 176.612 95.949 176.557C96.0585 176.502 96.1778 176.469 96.3001 176.46L105.43 176.71C105.694 176.748 105.936 176.875 106.118 177.069C106.3 177.264 106.41 177.514 106.43 177.78L108 195.85Z" fill="#263238"/>
<path opacity="0.5" d="M105.44 177.62L107 195.88C107.024 195.987 107.023 196.097 106.996 196.203C106.969 196.309 106.917 196.407 106.845 196.489C106.773 196.571 106.682 196.635 106.58 196.675C106.479 196.715 106.369 196.731 106.26 196.72L98.5202 196.51C98.0002 196.51 97.0502 196.18 97.0102 195.67L95.4302 177.35C95.4302 176.83 96.2902 176.44 96.8102 176.46L104.55 176.67C104.792 176.683 105.02 176.789 105.186 176.966C105.352 177.143 105.443 177.377 105.44 177.62Z" fill="white"/>
<path d="M102.3 200.82L101.23 197.3C101.695 196.032 102.053 194.728 102.3 193.4C102.39 192.21 99.2301 182.95 99.2301 182.95C99.2301 182.95 95.7701 185.69 93.6901 187.07C91.6101 188.45 94.9201 197.39 95.4401 197.62C95.9601 197.85 96.9701 198.44 96.9701 198.44L97.6601 201.31L102.3 200.82Z" fill="#E4897B"/>
<path d="M96.5902 204.09C97.6602 208.23 102.29 224.97 107.83 227.22C109.28 227.81 110.99 227.44 112.83 226.51C118.83 223.4 125.63 214.02 125.63 214.02L124.26 207.18L122.99 200.82C117.99 203.29 112.24 215.33 110.65 215.24C109.31 215.17 105.98 204.86 105 201.72C104.918 201.482 104.748 201.283 104.526 201.165C104.303 201.046 104.044 201.016 103.8 201.08L97.3202 202.91C97.0695 202.974 96.8533 203.133 96.7172 203.353C96.5811 203.573 96.5355 203.837 96.5902 204.09Z" fill="#FF531A"/>
<path d="M102.69 198.93L103.23 201.22L97.2701 202.91L96.5601 200.42L102.69 198.93Z" fill="#FF531A"/>
<path opacity="0.2" d="M102.69 198.93L103.23 201.22L97.2701 202.91L96.5601 200.42L102.69 198.93Z" fill="black"/>
<path opacity="0.2" d="M112.78 226.51C118.78 223.4 125.58 214.02 125.58 214.02L124.21 207.18C121.12 210.05 113.76 217.73 112.78 226.51Z" fill="black"/>
<path d="M158.21 328.86L158.16 320.13C158.161 319.988 158.21 319.85 158.299 319.74C158.388 319.629 158.512 319.552 158.65 319.52L165.05 318.07C165.325 318.011 165.611 318.062 165.848 318.214C166.084 318.366 166.25 318.606 166.31 318.88C166.32 318.956 166.32 319.034 166.31 319.11C166.31 321.94 166.12 324 166.13 327.55C166.13 329.73 166.41 336.32 166.42 339.34C166.43 342.36 163.42 342.76 163.18 341.53C161.94 336 160.25 331.83 158.65 330.07C158.354 329.738 158.197 329.305 158.21 328.86Z" fill="#263238"/>
<path d="M119.22 248.46L116.4 263.25C116.4 263.25 94.1101 299.33 94.1201 320.16C94.1201 345.05 159.05 330.69 159.05 330.69V319.23C159.05 319.23 120.25 322.57 116.75 318.68C112.51 313.95 138.67 277.39 138.67 277.39L119.22 248.46Z" fill="#0A2A5B"/>
<path opacity="0.2" d="M94.1201 320.16C94.1201 333.88 113.86 335.67 131.57 334.52C140.391 333.89 149.162 332.694 157.83 330.94C158.61 330.79 159.04 330.69 159.04 330.69V319.23L157.62 319.34C153.21 319.7 139.47 320.69 129.08 320.54C122.9 320.46 117.9 319.95 116.75 318.67C114.66 316.35 119.92 306.34 125.81 296.76C131.9 286.86 138.67 277.4 138.67 277.4L130.15 264.71L119.23 248.47L116.4 263.26C116.4 263.26 94.1101 299.33 94.1201 320.16Z" fill="white"/>
<path opacity="0.2" d="M129.08 320.54L131.57 334.54C140.391 333.91 149.162 332.714 157.83 330.96L157.62 319.36C153.21 319.7 139.47 320.69 129.08 320.54Z" fill="black"/>
<path opacity="0.2" d="M130.11 280.53C130.11 280.53 126.49 289.06 125.81 296.75C131.9 286.85 138.67 277.39 138.67 277.39L130.15 264.7L125.66 263.25C125.66 263.25 124.66 269.08 130.11 280.53Z" fill="black"/>
<path d="M135.91 405.77H144.64C144.784 405.77 144.924 405.819 145.035 405.91C145.146 406.002 145.222 406.129 145.25 406.27L146.67 412.67C146.699 412.806 146.701 412.946 146.676 413.083C146.65 413.22 146.598 413.35 146.521 413.466C146.445 413.583 146.347 413.683 146.231 413.761C146.116 413.838 145.986 413.893 145.85 413.92C145.774 413.93 145.696 413.93 145.62 413.92C142.8 413.87 140.74 413.7 137.19 413.7C135 413.7 128.41 413.93 125.39 413.93C122.37 413.93 121.98 410.93 123.22 410.67C128.76 409.46 132.93 407.79 134.7 406.2C135.034 405.908 135.467 405.754 135.91 405.77Z" fill="#263238"/>
<path d="M158.12 248.93C158.12 248.93 160.05 256.18 158.12 289.38C155.12 340.38 145.69 408.22 145.69 408.22L134.69 406.22C134.69 406.22 136.1 304.7 134.62 276.68C134.62 276.68 119.1 262.76 119.21 248.45C119.32 234.14 158.12 248.93 158.12 248.93Z" fill="#0A2A5B"/>
<path opacity="0.2" d="M158.12 248.93C158.12 248.93 160.05 256.18 158.12 289.38C155.12 340.38 145.69 408.22 145.69 408.22L134.69 406.22C134.69 406.22 136.1 304.7 134.62 276.68C134.62 276.68 119.1 262.76 119.21 248.45C119.32 234.14 158.12 248.93 158.12 248.93Z" fill="white"/>
<path d="M118.41 247.51C118.407 247.679 118.438 247.847 118.501 248.004C118.563 248.161 118.656 248.304 118.774 248.425C118.892 248.545 119.033 248.642 119.189 248.708C119.344 248.774 119.511 248.809 119.68 248.81L155.88 249.62L158.45 249.68C158.786 249.691 159.112 249.571 159.361 249.345C159.609 249.119 159.759 248.805 159.78 248.47L160.51 238.94L160.9 233.81L162.76 209.37L163.15 204.21C145.42 190.97 122.94 200.82 122.94 200.82C118.9 213.53 118.46 240.58 118.41 247.51Z" fill="#FF531A"/>
<path d="M159.13 249.51L118.66 248.27L118.19 250.68L159.13 252.01V249.51Z" fill="#FF531A"/>
<path opacity="0.2" d="M159.13 249.51L118.66 248.27L118.19 250.68L159.13 252.01V249.51Z" fill="black"/>
<path opacity="0.2" d="M160.9 233.81L162.76 209.37C161.658 209.72 160.638 210.288 159.76 211.04C159.76 211.04 153.44 220.88 160.9 233.81Z" fill="black"/>
<path opacity="0.2" d="M155.88 249.62L158.45 249.68C158.786 249.691 159.112 249.571 159.361 249.345C159.609 249.119 159.759 248.805 159.78 248.47L160.51 238.94C158.736 242.396 157.19 245.963 155.88 249.62Z" fill="black"/>
<g opacity="0.7">
<path d="M122.56 220.49L123 219.33C123.593 219.717 124.292 219.909 125 219.88C125.82 219.88 126.15 219.56 126.13 219.12C126.07 217.9 122.71 219.2 122.59 216.65C122.59 215.44 123.44 214.65 124.93 214.54C125.659 214.494 126.387 214.653 127.03 215L126.58 216.16C126.103 215.859 125.543 215.715 124.98 215.75C124.19 215.75 123.83 216.1 123.85 216.52C123.91 217.82 127.27 216.52 127.39 219.02C127.44 220.21 126.53 221.02 124.97 221.11C124.121 221.169 123.275 220.952 122.56 220.49Z" fill="white"/>
</g>
<path d="M150.69 200.49C147.21 203.66 138.69 202.49 138.69 202.49C138.69 202.49 133.36 201.03 134.48 199.36C137.62 198.84 139.14 197.36 139.77 195.5C140.108 194.339 140.214 193.122 140.08 191.92C140.033 191.249 139.946 190.581 139.82 189.92L150.38 182.1C149 187.26 147.28 196.75 150.69 200.49Z" fill="#E4897B"/>
<path opacity="0.2" d="M147.92 187.07C147.5 193.4 142.29 195.15 139.75 195.5C140.088 194.339 140.194 193.122 140.06 191.92L147.92 187.07Z" fill="black"/>
<path d="M153.87 165.69C153.87 165.69 156.82 175.22 152.21 179.74C147.6 184.26 144.87 166.12 144.87 166.12L153.87 165.69Z" fill="#263238"/>
<path d="M138.35 189.74C139.678 191.17 141.435 192.13 143.356 192.474C145.277 192.819 147.258 192.529 149 191.65C151.276 190.532 153.041 188.591 153.94 186.22C154.07 185.9 154.17 185.56 154.27 185.22C155.92 178.88 155.17 168.34 148.27 165.38C147.104 164.87 145.849 164.595 144.577 164.571C143.304 164.546 142.039 164.773 140.855 165.237C139.67 165.701 138.588 166.395 137.671 167.277C136.754 168.159 136.02 169.214 135.51 170.38C134.892 171.775 134.618 173.297 134.71 174.82C135 181.88 134.83 186.06 138.35 189.74Z" fill="#E4897B"/>
<path d="M145.45 177C145.45 177.57 145.73 178.05 146.11 178.05C146.49 178.05 146.8 177.6 146.82 177.05C146.84 176.5 146.53 176 146.15 176C145.77 176 145.46 176.41 145.45 177Z" fill="#263238"/>
<path d="M152 177.13C151.95 177.7 152.29 178.18 152.66 178.19C153.03 178.2 153.35 177.73 153.37 177.19C153.39 176.65 153.08 176.14 152.7 176.14C152.32 176.14 152 176.58 152 177.13Z" fill="#263238"/>
<path d="M149.89 177.37C150.536 179.154 151.432 180.837 152.55 182.37C152.147 182.647 151.688 182.831 151.206 182.911C150.724 182.99 150.23 182.963 149.76 182.83L149.89 177.37Z" fill="#DE5753"/>
<path d="M143.47 174.85C143.532 174.859 143.594 174.851 143.652 174.828C143.71 174.806 143.761 174.768 143.8 174.72C144.056 174.381 144.387 174.106 144.767 173.917C145.147 173.728 145.565 173.63 145.99 173.63C146.071 173.625 146.148 173.592 146.207 173.535C146.266 173.478 146.302 173.402 146.309 173.321C146.316 173.24 146.294 173.159 146.247 173.092C146.199 173.026 146.129 172.979 146.05 172.96C145.513 172.945 144.981 173.059 144.497 173.292C144.013 173.525 143.593 173.871 143.27 174.3C143.239 174.331 143.214 174.367 143.197 174.408C143.18 174.448 143.172 174.491 143.172 174.535C143.172 174.579 143.18 174.622 143.197 174.662C143.214 174.703 143.239 174.739 143.27 174.77C143.33 174.81 143.398 174.838 143.47 174.85Z" fill="#263238"/>
<path d="M154.81 174.94C154.876 174.954 154.944 174.954 155.01 174.94C155.092 174.903 155.157 174.835 155.19 174.751C155.224 174.667 155.224 174.574 155.19 174.49C154.983 173.986 154.657 173.541 154.238 173.192C153.82 172.843 153.323 172.602 152.79 172.49C152.701 172.479 152.612 172.503 152.54 172.557C152.469 172.611 152.422 172.691 152.41 172.78C152.399 172.869 152.423 172.958 152.477 173.03C152.531 173.101 152.611 173.148 152.7 173.16C153.113 173.259 153.498 173.453 153.823 173.728C154.148 174.002 154.403 174.349 154.57 174.74C154.592 174.79 154.625 174.834 154.666 174.868C154.708 174.903 154.757 174.928 154.81 174.94Z" fill="#263238"/>
<path d="M140.11 166.07L140.58 169.18C140.049 169.446 139.64 169.905 139.437 170.463C139.234 171.021 139.253 171.635 139.49 172.18C140.57 174.78 139.19 178.89 137.22 180.57C137.22 180.57 137.13 179.44 136.22 179.73C135.31 180.02 135.69 185.95 137.64 188.73C135.155 186.158 133.38 182.984 132.49 179.52C130.85 173.81 131.02 169.58 132.14 167.32L140.11 166.07Z" fill="#263238"/>
<path d="M131.52 180.55C132.278 182.166 133.644 183.416 135.32 184.03C137.54 184.83 138.83 182.88 138.32 180.69C137.89 178.74 136.21 175.92 133.91 176.09C133.407 176.128 132.922 176.292 132.499 176.567C132.076 176.843 131.73 177.22 131.492 177.664C131.253 178.109 131.131 178.607 131.136 179.111C131.141 179.615 131.273 180.11 131.52 180.55Z" fill="#E4897B"/>
<path d="M149 184.9C148.242 185.662 147.54 186.477 146.9 187.34L146.4 187.08C144.12 185.88 143.47 184.57 143.4 183.48C143.392 182.95 143.509 182.426 143.74 181.95C143.865 181.677 144.03 181.424 144.23 181.2C145.314 182.567 146.678 183.685 148.23 184.48C148.66 184.75 149 184.9 149 184.9Z" fill="#263238"/>
<path d="M148.19 184.48L147.56 185.18C145.42 184.04 144.06 182.96 143.73 181.95C143.855 181.677 144.02 181.424 144.22 181.2C145.295 182.563 146.648 183.682 148.19 184.48Z" fill="white"/>
<path d="M146.36 187.08C144.08 185.88 143.43 184.57 143.36 183.48C144.215 183.957 144.98 184.58 145.62 185.32C146.045 185.815 146.304 186.43 146.36 187.08Z" fill="#DE5753"/>
<path d="M131.24 172C130.973 170.36 131.156 168.679 131.769 167.134C132.382 165.59 133.402 164.241 134.72 163.23C139.37 159.34 152.43 157.52 154.41 163.23C156.39 168.94 146.75 174.18 139.75 169.13L131.24 172Z" fill="#263238"/>
<path d="M149.5 195.71L139.36 200.28L138.77 196.62L135 197.93C134.355 198.164 133.807 198.607 133.445 199.189C133.082 199.771 132.925 200.458 133 201.14L133.42 205.14L138.56 202.33L141.12 205.95L153.3 200.09L149.5 195.71Z" fill="#FF531A"/>
<path opacity="0.7" d="M149.5 195.71L139.36 200.28L138.77 196.62L135 197.93C134.355 198.164 133.807 198.607 133.445 199.189C133.082 199.771 132.925 200.458 133 201.14L133.42 205.14L138.56 202.33L141.12 205.95L153.3 200.09L149.5 195.71Z" fill="white"/>
<path opacity="0.2" d="M151.12 252C151.12 252 151.35 257.41 158.34 259.72C158.571 257.12 158.382 254.5 157.78 251.96L151.12 252Z" fill="black"/>
<path d="M163.15 204.21C169.35 210.21 178.58 229.4 175.84 237.7C173.52 244.76 162.71 255.38 159.5 258.42C159.384 258.531 159.247 258.618 159.098 258.675C158.948 258.732 158.788 258.759 158.627 258.753C158.467 258.748 158.309 258.71 158.164 258.643C158.018 258.575 157.888 258.479 157.78 258.36L153.94 254.14C153.75 253.933 153.638 253.665 153.623 253.384C153.608 253.103 153.692 252.826 153.86 252.6C156.36 249.31 165.8 236.72 166.44 234.14C167.18 231.14 159.13 219.51 159.13 219.51C158.406 216.143 158.355 212.667 158.98 209.28C160.05 204.08 163.15 204.21 163.15 204.21Z" fill="#FF531A"/>
<path d="M153.67 253.66L152.27 255.11C152.27 255.11 154.45 258.41 157.09 259.11L157.78 258.4L153.67 253.66Z" fill="#FF531A"/>
<path opacity="0.2" d="M153.67 253.66L152.27 255.11C152.27 255.11 154.45 258.41 157.09 259.11L157.78 258.4L153.67 253.66Z" fill="black"/>
<path d="M200.348 132C200.074 132 199.938 131.854 199.938 131.561V124.037C199.938 123.744 200.074 123.598 200.348 123.598H202.047C202.273 123.598 202.436 123.754 202.533 124.066L204.121 129.205C204.191 129.428 204.24 129.611 204.268 129.756C204.295 129.896 204.318 130.064 204.338 130.26H204.373C204.393 130.064 204.416 129.896 204.443 129.756C204.471 129.611 204.52 129.428 204.59 129.205L206.178 124.066C206.275 123.754 206.438 123.598 206.664 123.598H208.363C208.637 123.598 208.773 123.744 208.773 124.037V131.561C208.773 131.854 208.637 132 208.363 132H207.473C207.199 132 207.062 131.854 207.062 131.561V126.721C207.062 126.486 207.072 126.252 207.092 126.018H207.051L205.357 131.525C205.26 131.842 205.092 132 204.854 132H203.857C203.619 132 203.451 131.842 203.354 131.525L201.66 126.018H201.619C201.639 126.252 201.648 126.486 201.648 126.721V131.561C201.648 131.854 201.512 132 201.238 132H200.348ZM210.215 127.799C210.215 126.451 210.562 125.381 211.258 124.588C211.953 123.795 212.945 123.398 214.234 123.398C215.523 123.398 216.516 123.795 217.211 124.588C217.906 125.381 218.254 126.451 218.254 127.799C218.254 129.146 217.906 130.217 217.211 131.01C216.516 131.803 215.523 132.199 214.234 132.199C212.945 132.199 211.953 131.803 211.258 131.01C210.562 130.217 210.215 129.146 210.215 127.799ZM212.043 127.799C212.043 128.775 212.217 129.523 212.564 130.043C212.916 130.559 213.473 130.816 214.234 130.816C214.996 130.816 215.551 130.559 215.898 130.043C216.25 129.523 216.426 128.775 216.426 127.799C216.426 126.822 216.25 126.076 215.898 125.561C215.551 125.041 214.996 124.781 214.234 124.781C213.473 124.781 212.916 125.041 212.564 125.561C212.217 126.076 212.043 126.822 212.043 127.799ZM220.105 132C219.832 132 219.695 131.854 219.695 131.561V124.037C219.695 123.744 219.832 123.598 220.105 123.598H220.973C221.309 123.598 221.562 123.734 221.734 124.008L224.723 128.807H224.764C224.744 128.572 224.734 128.338 224.734 128.104V124.037C224.734 123.744 224.871 123.598 225.145 123.598H226.035C226.309 123.598 226.445 123.744 226.445 124.037V131.561C226.445 131.854 226.309 132 226.035 132H225.227C224.891 132 224.637 131.863 224.465 131.59L221.418 126.703H221.377C221.396 126.938 221.406 127.172 221.406 127.406V131.561C221.406 131.854 221.27 132 220.996 132H220.105ZM228.73 132C228.457 132 228.32 131.854 228.32 131.561V124.037C228.32 123.744 228.457 123.598 228.73 123.598H233.758C234.051 123.598 234.197 123.725 234.197 123.979V124.67C234.197 124.924 234.051 125.051 233.758 125.051H230.031V126.914H233.447C233.74 126.914 233.887 127.041 233.887 127.295V127.986C233.887 128.24 233.74 128.367 233.447 128.367H230.031V130.547H233.945C234.238 130.547 234.385 130.674 234.385 130.928V131.619C234.385 131.873 234.238 132 233.945 132H228.73ZM235.48 124.102C235.281 123.766 235.373 123.598 235.756 123.598H236.781C236.984 123.598 237.164 123.732 237.32 124.002L238.568 126.176C238.604 126.234 238.707 126.418 238.879 126.727C239.051 127.031 239.15 127.328 239.178 127.617H239.201C239.229 127.328 239.328 127.031 239.5 126.727C239.672 126.418 239.775 126.234 239.811 126.176L241.059 124.002C241.215 123.732 241.395 123.598 241.598 123.598H242.623C243.006 123.598 243.098 123.766 242.898 124.102L240.045 128.924V131.678C240.045 131.893 239.908 132 239.635 132H238.744C238.471 132 238.334 131.893 238.334 131.678V128.924L235.48 124.102ZM248.348 132C248.074 132 247.938 131.854 247.938 131.561V124.037C247.938 123.744 248.074 123.598 248.348 123.598H250.047C250.273 123.598 250.436 123.754 250.533 124.066L252.121 129.205C252.191 129.428 252.24 129.611 252.268 129.756C252.295 129.896 252.318 130.064 252.338 130.26H252.373C252.393 130.064 252.416 129.896 252.443 129.756C252.471 129.611 252.52 129.428 252.59 129.205L254.178 124.066C254.275 123.754 254.438 123.598 254.664 123.598H256.363C256.637 123.598 256.773 123.744 256.773 124.037V131.561C256.773 131.854 256.637 132 256.363 132H255.473C255.199 132 255.062 131.854 255.062 131.561V126.721C255.062 126.486 255.072 126.252 255.092 126.018H255.051L253.357 131.525C253.26 131.842 253.092 132 252.854 132H251.857C251.619 132 251.451 131.842 251.354 131.525L249.66 126.018H249.619C249.639 126.252 249.648 126.486 249.648 126.721V131.561C249.648 131.854 249.512 132 249.238 132H248.348ZM258.385 132C258.104 132 258.012 131.871 258.109 131.613L260.98 124.072C261.102 123.756 261.285 123.598 261.531 123.598H262.352C262.598 123.598 262.781 123.756 262.902 124.072L265.773 131.613C265.871 131.871 265.779 132 265.498 132H264.566C264.309 132 264.129 131.865 264.027 131.596L263.43 130.02H260.453L259.855 131.596C259.754 131.865 259.574 132 259.316 132H258.385ZM260.998 128.566H262.885L262.164 126.703C262.078 126.484 262.025 126.326 262.006 126.229C261.99 126.127 261.973 125.979 261.953 125.783H261.93C261.91 125.979 261.891 126.127 261.871 126.229C261.855 126.326 261.805 126.484 261.719 126.703L260.998 128.566ZM267.227 132C266.953 132 266.816 131.854 266.816 131.561V124.037C266.816 123.744 266.953 123.598 267.227 123.598H268.094C268.43 123.598 268.684 123.734 268.855 124.008L271.844 128.807H271.885C271.865 128.572 271.855 128.338 271.855 128.104V124.037C271.855 123.744 271.992 123.598 272.266 123.598H273.156C273.43 123.598 273.566 123.744 273.566 124.037V131.561C273.566 131.854 273.43 132 273.156 132H272.348C272.012 132 271.758 131.863 271.586 131.59L268.539 126.703H268.498C268.518 126.938 268.527 127.172 268.527 127.406V131.561C268.527 131.854 268.391 132 268.117 132H267.227ZM275.143 125.098C274.85 125.098 274.703 124.971 274.703 124.717V123.979C274.703 123.725 274.85 123.598 275.143 123.598H281.166C281.459 123.598 281.605 123.725 281.605 123.979V124.717C281.605 124.971 281.459 125.098 281.166 125.098H279.01V131.678C279.01 131.893 278.912 132 278.717 132H277.592C277.396 132 277.299 131.893 277.299 131.678V125.098H275.143ZM283.152 132C282.879 132 282.742 131.854 282.742 131.561V124.037C282.742 123.744 282.879 123.598 283.152 123.598H285.865C287.072 123.598 287.953 123.785 288.508 124.16C289.062 124.531 289.34 125.137 289.34 125.977C289.34 126.602 289.115 127.1 288.666 127.471C288.217 127.842 287.646 128.088 286.955 128.209V128.221C287.33 128.361 287.613 128.557 287.805 128.807C287.996 129.057 288.152 129.275 288.273 129.463L289.562 131.496C289.777 131.832 289.703 132 289.34 132H288.32C288.105 132 287.93 131.885 287.793 131.654L286.609 129.68C286.48 129.469 286.244 129.238 285.9 128.988C285.561 128.734 285.223 128.607 284.887 128.607H284.453V131.561C284.453 131.854 284.316 132 284.043 132H283.152ZM284.453 127.154H285.502C286.283 127.154 286.838 127.066 287.166 126.891C287.498 126.711 287.664 126.428 287.664 126.041C287.664 125.619 287.504 125.346 287.184 125.221C286.867 125.092 286.4 125.027 285.783 125.027H284.453V127.154ZM290.846 132C290.564 132 290.473 131.871 290.57 131.613L293.441 124.072C293.562 123.756 293.746 123.598 293.992 123.598H294.812C295.059 123.598 295.242 123.756 295.363 124.072L298.234 131.613C298.332 131.871 298.24 132 297.959 132H297.027C296.77 132 296.59 131.865 296.488 131.596L295.891 130.02H292.914L292.316 131.596C292.215 131.865 292.035 132 291.777 132H290.846ZM293.459 128.566H295.346L294.625 126.703C294.539 126.484 294.486 126.326 294.467 126.229C294.451 126.127 294.434 125.979 294.414 125.783H294.391C294.371 125.979 294.352 126.127 294.332 126.229C294.316 126.326 294.266 126.484 294.18 126.703L293.459 128.566Z" fill="white"/>
</svg>
